<svg width="120" height="47" viewBox="0 0 120 47" fill="none" xmlns="http://www.w3.org/2000/svg">
<g clip-path="url(#clip0_408_1268)">
<path d="M49.899 1.74088e-05L0 0.0549257V46.8326H3.54792V4.01677L49.4935 3.96186C60.2429 3.90696 68.9606 12.6374 68.9606 23.3614C68.9606 34.0854 60.2471 42.7989 49.5484 42.8032H36.3535L36.4169 19.1081H32.8732L32.7929 46.7903H49.9666L55.846 46.8453C58.6928 46.7312 63.6472 39.8972 66.4855 35.3356L86.865 0.0338071H82.0795L72.2551 16.3542C69.2436 6.89312 60.34 -0.0126537 49.899 1.74088e-05Z" fill="#4A494A"/>
<path d="M87.0297 0L112.921 43.0523L78.6964 42.8243V46.8199H120L92.2249 0H87.0297Z" fill="#4A494A"/>
<path d="M86.9706 3.78003L62.131 46.8155H65.4804L87.1142 10.8843L102.641 37.0629L78.7133 36.9404V40.8347L109.407 41.0459L86.9706 3.78003Z" fill="#4A494A"/>
<path d="M49.485 5.95114L5.5246 6.00604V25.5492H27.226V27.5343H5.52882V46.8367H9.91726V31.5046H27.6484V21.5789H9.91726V9.97211L49.9159 9.91721C57.4467 9.8623 63.4064 15.8558 63.4064 23.3613C63.4064 30.8668 57.4214 36.8434 49.9454 36.8476H42.7313L42.7862 19.1291H38.3893L38.326 40.8306H49.5273C59.1531 40.8306 66.9585 33.0209 66.9585 23.3697C66.9585 13.7186 59.1573 5.91735 49.485 5.94269V5.95114Z" fill="#4A494A"/>
</g>
<defs>
<clipPath id="clip0_408_1268">
<rect width="120" height="46.8452" fill="white"/>
</clipPath>
</defs>
</svg>
