<svg width="140" height="70" viewBox="0 0 140 70" fill="none" xmlns="http://www.w3.org/2000/svg">
<g clip-path="url(#clip0_408_1256)">
<path fill-rule="evenodd" clip-rule="evenodd" d="M87.2079 55.6992C82.6519 55.6992 85.6193 45.6241 86.4189 43.3567C87.2612 40.9437 89.5676 35.9327 91.5685 34.4472C93.85 32.7378 96.3839 32.7485 99.1204 33.1501C99.7281 33.2283 102.354 33.7933 102.941 34.0776L101.988 38.8575L100.425 41.9814C99.9022 43.0013 98.3634 45.4748 97.7201 46.3419L94.6887 50.2369L91.8741 53.3004C90.8861 54.2883 88.5939 55.6956 87.2043 55.6956L87.2079 55.6992ZM100.425 45.489C100.425 45.9439 99.7885 48.9824 99.6534 49.6861C99.3798 51.0685 99.131 52.4332 98.8467 53.8477C98.2817 56.6196 99.0351 59.9674 102.305 59.9745C105.489 59.9816 108.364 57.9914 110.372 56.2856C111.083 55.685 111.317 55.4007 111.978 54.7503C112.202 54.5264 113.009 53.574 113.094 53.343C113.154 53.1618 113.428 51.4204 113.428 51.1538L111.79 52.8774C111.79 52.8774 111.772 52.9023 111.765 52.913C111.687 52.9805 111.765 52.9201 111.655 53.016C110.745 53.805 109.999 54.6473 108.876 55.4113C107.941 56.0546 105.976 57.4548 104.775 56.7511C103.52 56.0119 104.295 53.0871 104.508 52.0139C104.654 51.232 104.853 50.4253 105.013 49.5937C105.819 45.5174 106.765 41.4732 107.571 37.4502L109.1 30.0938C108.318 30.0938 107.486 29.9658 107.006 29.9481C103.932 29.7953 100.734 29.646 97.6846 30.1471C95.9432 30.4314 94.4151 30.8579 92.9971 31.4762C91.8883 31.9489 90.5947 32.6952 89.6245 33.4166L88.37 34.4046C87.1155 35.357 85.4772 36.9527 84.5318 38.1219C81.9837 41.2884 80.4449 44.2167 79.5032 48.2148C78.8066 51.1929 78.6431 55.4504 80.6617 58.1442C82.9362 61.2005 86.4474 60.0313 89.1945 58.393C89.9586 57.9452 90.6551 57.3731 91.341 56.8293C91.5116 56.7085 91.5898 56.6054 91.7532 56.4775C92.6453 55.749 93.2707 55.0773 94.0881 54.2634L95.5132 52.6855C96.8708 51.0899 99.0848 47.9483 100.123 45.9652C100.25 45.7236 100.233 45.6383 100.432 45.5032V45.4961L100.425 45.489Z" fill="#4A494A"/>
<path fill-rule="evenodd" clip-rule="evenodd" d="M28.6229 23.6434L23.8252 23.6007V20.7754L29.1808 20.7399C29.1879 20.2672 29.3798 19.5635 29.4651 19.1015C30.2896 14.9578 30.1937 12.3812 32.891 9.02641C34.8634 6.59913 38.2289 5.77464 41.303 6.68443C41.836 6.8479 42.2376 7.01849 42.6925 7.24949L44.0039 7.90339L48.1406 3.7916C47.7532 3.76672 47.0673 3.62812 46.7084 3.58548C41.9036 3.3296 37.6105 3.68143 33.3459 6.26152C28.5731 9.14368 25.1401 14.4069 23.9638 19.823C23.7079 20.9993 23.8607 20.7328 23.3099 20.7079L16.7175 20.7008C16.3479 20.7185 16.3728 20.7505 16.3728 21.1201L16.3799 23.6434H23.2281C23.2281 24.0485 22.7661 26.3372 22.6702 26.9378C22.4889 28.0181 22.2828 29.0914 22.0767 30.2002C21.27 34.4648 20.5734 39.1097 19.7525 43.3316C19.5286 44.4298 19.358 45.503 19.1696 46.6012C18.9884 47.6993 18.7752 48.7903 18.569 49.9133C17.5207 55.7488 16.8596 63.887 10.2104 64.7009C7.50593 65.0456 5.74678 64.3419 3.51497 63.816L2.68337 64.811C2.39907 65.1558 2.08988 65.4472 1.80913 65.8168L0.305853 67.5404C0.117499 67.7821 0.0499761 67.7821 0.0215454 68.1055C3.49009 68.1055 6.98352 68.5355 10.3028 67.3236C10.5765 67.2206 10.8252 67.1246 11.1095 67.0144C12.8083 66.3463 14.0201 65.4969 15.4097 64.3881L16.5505 63.2971C16.8952 62.8493 17.5455 62.1883 18.1568 61.3923C18.5015 60.9374 18.7752 60.4896 19.0915 60.0205C19.4006 59.5585 19.6316 59.1178 19.9159 58.6131C22.4214 54.1318 23.9922 48.0476 24.9873 43.0438C25.236 41.807 25.5204 40.4352 25.7336 39.163C26.3697 35.3426 27.244 31.3374 27.8872 27.5419L28.6086 23.6362H28.6157L28.6229 23.6434Z" fill="#4A494A"/>
<path fill-rule="evenodd" clip-rule="evenodd" d="M28.6228 23.6433H138.806L140 20.7079L119.797 20.6901L118.809 20.7327C117.949 20.6226 74.2151 20.715 73.9201 20.715H31.9066C31.107 20.715 29.753 20.7754 29.1772 20.7399L23.8216 20.7754V23.6078L28.6193 23.6505V23.6433H28.6228Z" fill="#4A494A"/>
<path fill-rule="evenodd" clip-rule="evenodd" d="M120.49 32.4002C121.392 32.4002 122.359 32.3327 123.055 33.0435C124.25 34.2447 123.493 36.5724 123.237 37.9442C123.048 38.9499 122.885 39.842 122.686 40.8264L121.055 49.4089C120.738 50.9797 119.509 56.9963 119.509 58.1442C119.509 59.7826 119.619 61.5168 120.777 62.686C121.918 63.8268 122.785 64.1716 124.537 64.1716C126.922 64.1716 129.74 62.6612 131.592 61.4244L135.693 58.1904C135.789 57.9594 135.728 56.1719 135.728 55.7703C135.401 55.8662 135.092 56.378 134.691 56.6978C133.404 57.7284 132.956 58.2935 131.24 59.3312C130.252 59.9318 128.013 61.0229 127.025 59.7932C126.108 58.6524 126.563 56.5486 126.819 55.2514L132.725 26.0957C132.374 26.2592 131.773 26.4049 131.354 26.5435C129.115 27.2898 126.623 28.0041 124.402 28.7504L117.44 30.9574C116.701 31.1706 116.257 31.231 116.221 31.6255C116.033 33.7116 115.98 33.4948 116.701 33.2922C116.925 33.2318 117.216 33.1643 117.472 33.0861C118.048 32.9226 119.96 32.4002 120.486 32.4002H120.49Z" fill="#4A494A"/>
<path fill-rule="evenodd" clip-rule="evenodd" d="M58.2689 38.1397C58.2689 40.4994 58.9974 42.0774 60.3799 43.4349L64.3637 47.9234C65.007 48.7301 65.6182 49.1424 66.2188 50.3365C67.5906 53.0836 66.9225 56.0511 63.6281 56.7903C62.8569 56.9608 62.3309 56.9111 61.5526 56.8933C60.4545 56.8684 58.9619 56.3354 57.9562 55.9409C56.4031 55.3225 56.1792 55.0382 54.9176 54.3701C54.6688 54.7397 53.0483 56.3176 52.6965 56.6943L51.3496 58.1443C51.9431 58.4606 54.1642 59.1216 54.7897 59.2531C59.2711 60.2055 63.6139 59.9496 67.388 57.3375C68.2552 56.7369 69.4315 55.5855 69.9717 54.6757C70.3306 54.0573 70.5652 53.6806 70.8139 52.9343C71.6029 50.539 71.1054 48.0514 69.6021 46.1714L65.0105 40.5599C64.4597 39.8562 63.6281 38.9962 63.2585 38.2499C62.7609 37.2548 62.3842 36.3877 62.5299 34.9874C62.7716 32.7556 65.3019 31.4869 67.2175 31.4869C68.1024 31.4869 68.7954 31.462 69.6554 31.7783C70.917 32.2332 72.2568 33.2389 72.2568 34.7742C72.2568 35.9257 72.1715 35.6662 72.1111 36.3201H73.8631C74.016 36.0038 74.4708 33.8929 74.5739 33.4024L75.2598 30.371C74.6059 30.2182 74.1439 29.8735 72.6513 29.614C69.6661 29.1094 66.9083 29.3404 64.1363 30.5736C63.1483 31.0214 61.8547 31.7748 61.08 32.5566L60.4545 33.1821C59.2355 34.5823 58.2653 36.0394 58.2653 38.1326H58.2724L58.2689 38.1397Z" fill="#4A494A"/>
<path fill-rule="evenodd" clip-rule="evenodd" d="M33.5839 38.3456C33.5839 39.8204 34.117 41.512 35.009 42.6528L38.3745 46.4377C38.5024 46.6011 38.5628 46.6509 38.7086 46.7966L40.4251 48.7192C41.1643 49.4478 42.2517 51.2496 42.2517 52.6853C42.2517 54.1211 41.8821 55.2085 40.8942 55.9477C38.2857 57.913 34.483 56.6088 31.9243 55.3223C31.6329 55.1837 31.409 55.0486 31.1104 54.8851C30.8546 54.7394 30.5703 54.5084 30.2966 54.4374L27.5921 57.2023C27.2332 57.6749 26.8103 57.913 26.725 58.2222C27.0342 58.2897 27.2581 58.4034 27.5069 58.4887C27.7912 58.5989 28.0826 58.6878 28.3491 58.773C32.8625 60.3012 38.8543 60.223 42.6818 57.4013C43.6875 56.655 44.5013 55.9335 45.1979 54.878C47.085 52.0812 46.9499 48.7832 44.9065 46.1143L39.0533 38.9639C38.7867 38.6619 38.6766 38.4415 38.4953 38.047C38.0902 37.1373 37.8521 36.6149 37.8521 35.4812C37.8521 30.3814 47.6358 30.0474 47.6358 35.1293C47.6358 35.634 47.5079 35.9005 47.4972 36.3234C49.5229 36.3234 49.2492 36.4763 49.4127 35.7157C49.4731 35.4421 49.5229 35.2004 49.5833 34.9765C49.7468 34.2977 50.5002 30.7368 50.6388 30.4454C49.2244 29.6884 46.9321 29.3899 44.9846 29.3899C41.8537 29.3899 38.2217 30.8043 36.6082 32.4213C36.3666 32.663 36.1782 32.766 35.9401 33.0148C35.7944 33.1676 35.7873 33.2138 35.6665 33.3666C34.6892 34.5181 33.9997 35.5558 33.7261 37.1586C33.6763 37.45 33.5875 38.0435 33.5875 38.3527L33.5839 38.3456Z" fill="#4A494A"/>
<path fill-rule="evenodd" clip-rule="evenodd" d="M124.267 18.1955C123.891 18.7535 122.696 19.379 121.932 19.6384C121.374 19.8267 120.294 20.1004 119.651 20.143C119.306 20.1679 119.025 20.2212 118.741 20.2212C118.741 20.5055 118.734 20.5304 118.809 20.7365L119.797 20.6939C119.967 20.6157 122.138 20.5482 123.891 19.2866C124.999 18.4869 124.146 18.7464 125.419 18.5758C125.824 18.5154 126.026 18.526 126.407 18.4479C132.217 17.2644 134.499 9.69474 134.541 4.3391L134.669 2.21746C134.748 1.64174 134.687 0.621786 134.687 0.00341797H134.541C134.474 0.920309 132.747 3.53238 132.171 4.3391C128.567 8.37271 122.988 12.3281 124.267 18.1991V18.1955Z" fill="#4A494A"/>
<path fill-rule="evenodd" clip-rule="evenodd" d="M120.433 13.6038C121.858 13.6038 123.016 14.7552 123.016 16.1803C123.016 17.6054 121.858 18.7568 120.433 18.7568C119.008 18.7568 117.856 17.6054 117.856 16.1803C117.856 14.7552 119.015 13.6038 120.433 13.6038Z" fill="#4A494A"/>
<path fill-rule="evenodd" clip-rule="evenodd" d="M130.472 66.325L129.065 69.1396H0.000183105V68.6172C6.7205 69.0792 11.1415 68.1694 14.0059 66.3356L130.472 66.3285V66.325Z" fill="#4A494A"/>
</g>
<defs>
<clipPath id="clip0_408_1256">
<rect width="140" height="69.14" fill="white"/>
</clipPath>
</defs>
</svg>
