<svg width="100" height="58" viewBox="0 0 100 58" fill="none" xmlns="http://www.w3.org/2000/svg">
<g clip-path="url(#clip0_408_1275)">
<path d="M26.848 54.0258C25.9027 54.6248 24.8859 55.1485 23.7938 55.6006C22.7016 56.0489 21.5228 56.4031 20.265 56.6555C19.0071 56.9117 17.689 57.036 16.3106 57.036C13.8552 57.036 11.6219 56.6253 9.61463 55.8003C7.60733 54.9752 5.89379 53.8374 4.47022 52.3831C3.04666 50.9289 1.94698 49.2147 1.16741 47.2368C0.387841 45.2588 -6.10352e-05 43.1151 -6.10352e-05 40.8094C-6.10352e-05 38.5037 0.395373 36.4956 1.19001 34.5177C1.98464 32.5398 3.09939 30.8105 4.53801 29.3261C5.97664 27.8417 7.69018 26.6663 9.68242 25.796C11.6747 24.9257 13.8552 24.4924 16.2203 24.4924C17.5986 24.4924 18.8489 24.5904 19.9712 24.7863C21.0935 24.9822 22.1367 25.2572 23.0933 25.6189C24.0498 25.9768 24.9575 26.4214 25.8124 26.9451C26.6672 27.4687 27.4958 28.0753 28.3055 28.7648L24.7993 32.9467C24.2005 32.4381 23.5866 31.9747 22.9577 31.5527C22.3288 31.1345 21.6697 30.7804 20.9805 30.4978C20.2913 30.2115 19.5344 29.9892 18.7096 29.8234C17.8848 29.6577 16.981 29.5748 15.9905 29.5748C14.5519 29.5748 13.2112 29.8686 11.9684 30.4526C10.7256 31.0366 9.64476 31.8428 8.73338 32.8638C7.81823 33.8848 7.09892 35.0715 6.57544 36.4203C6.05196 37.7728 5.78834 39.212 5.78834 40.7454C5.78834 42.3654 6.04066 43.8686 6.55284 45.2513C7.06126 46.634 7.7881 47.8245 8.73338 48.8304C9.67865 49.8363 10.8009 50.6237 12.104 51.1964C13.407 51.7653 14.8683 52.0516 16.4839 52.0516C17.9828 52.0516 19.3837 51.8331 20.6868 51.3961C21.9898 50.959 23.1196 50.3788 24.08 49.6555V43.733H16.0357V38.9219H29.4277V52.1383C28.6482 52.7976 27.7858 53.4267 26.8442 54.0258H26.848Z" fill="#4A494A"/>
<path d="M52.1256 48.7662H51.9448L42.1042 34.0202V56.4971H36.6208V25.031H42.5072L52.0767 39.9088L61.6462 25.031H67.5325V56.4971H62.0491V33.9298L52.1181 48.7662H52.1256Z" fill="#4A494A"/>
<path d="M98.9902 40.2706C98.3312 41.6194 97.4273 42.7421 96.2862 43.6425C95.1451 44.543 93.8082 45.2249 92.2791 45.6883C90.7464 46.1517 89.1119 46.3853 87.3682 46.3853H81.1091V56.501H75.6257V25.0349H88.0273C89.8538 25.0349 91.5109 25.2836 92.9909 25.7771C94.4747 26.2706 95.7326 26.9827 96.7645 27.9133C97.7964 28.8438 98.591 29.9515 99.1446 31.24C99.6982 32.5284 99.9769 33.9827 99.9769 35.5989C99.9769 37.3659 99.6455 38.9256 98.9865 40.2744L98.9902 40.2706ZM92.5164 31.4434C91.2849 30.4978 89.6316 30.0231 87.5565 30.0231H81.1091V41.3971H87.5565C89.658 41.3971 91.3226 40.8772 92.539 39.8411C93.7554 38.8013 94.3655 37.4262 94.3655 35.712C94.3655 33.8169 93.7479 32.3966 92.5164 31.4472V31.4434Z" fill="#4A494A"/>
<path d="M30.6442 5.71503V3.99329C30.6442 3.40556 30.5048 2.99491 30.2261 2.75002C29.9926 2.47876 29.6838 2.33937 29.262 2.33937C28.8402 2.33937 28.5277 2.47876 28.2979 2.75002C28.0644 2.99114 27.959 3.40556 27.959 3.99329V12.7979C27.959 13.4007 28.0607 13.8114 28.2979 14.0412C28.5277 14.2748 28.8478 14.3803 29.262 14.3803C29.6763 14.3803 29.9889 14.2785 30.2261 14.0412C30.5048 13.8151 30.6442 13.4007 30.6442 12.7979V10.4583H33.0469V12.666C33.0469 14.0035 32.723 15.0358 32.0828 15.7629C31.4275 16.4486 30.4672 16.7914 29.1942 16.7914C27.9213 16.7914 27.0099 16.4448 26.3697 15.7629C25.722 15.0358 25.4131 14.0035 25.4131 12.666V4.12515C25.4131 2.80277 25.722 1.78554 26.3697 1.10363C27.0099 0.38404 27.959 -0.000244141 29.1942 -0.000244141C30.4295 -0.000244141 31.4275 0.38404 32.0828 1.10363C32.723 1.78931 33.0469 2.80277 33.0469 4.12515V5.71503H30.6442Z" fill="#4A494A"/>
<path d="M42.0702 1.10339C41.415 0.383795 40.4546 -0.000488281 39.1817 -0.000488281C37.9088 -0.000488281 36.9748 0.383795 36.2931 1.10339C35.6379 1.78907 35.329 2.80252 35.329 4.12491V12.6658C35.329 14.0033 35.6379 15.0356 36.2931 15.7627C36.9786 16.4484 37.9389 16.7912 39.1817 16.7912C40.4245 16.7912 41.415 16.4446 42.0702 15.7627C42.7557 15.0356 43.0984 14.0033 43.0984 12.6658V4.12491C43.0984 2.80252 42.7519 1.7853 42.0702 1.10339ZM40.5563 12.7977C40.5563 13.4005 40.417 13.8337 40.1458 14.105C39.9048 14.3461 39.596 14.4516 39.1817 14.4516C38.7674 14.4516 38.4398 14.3499 38.2176 14.105C37.9766 13.8337 37.8711 13.4005 37.8711 12.7977V3.99305C37.8711 3.40532 37.9728 2.99466 38.2176 2.74978C38.4398 2.47852 38.7674 2.33912 39.1817 2.33912C39.596 2.33912 39.901 2.47852 40.1458 2.74978C40.417 2.9909 40.5563 3.40532 40.5563 3.99305V12.7977Z" fill="#4A494A"/>
<path d="M52.6303 1.24309C51.9751 0.55364 51.0147 0.207031 49.7418 0.207031H45.682V16.5881H49.7418C51.0147 16.5881 51.9751 16.2415 52.6303 15.5595C53.2706 14.8701 53.5944 13.8679 53.5944 12.5305V4.26462C53.5944 2.94223 53.2706 1.92501 52.6303 1.24309ZM50.9733 12.6661C50.9733 13.2614 50.8565 13.6796 50.6343 13.9018C50.3933 14.143 50.0845 14.2485 49.6702 14.2485H48.2203V2.54287H49.6702C50.0807 2.54287 50.3895 2.6672 50.6343 2.88948C50.8565 3.1306 50.9733 3.54503 50.9733 4.12522V12.6661Z" fill="#4A494A"/>
<path d="M58.6561 2.54287V7.09023H62.166V9.42984H58.6561V14.2447H63.1263V16.5843H56.1064V0.207031H63.1263V2.54287H58.6561Z" fill="#4A494A"/>
<path d="M74.3379 16.5843H71.6565L69.5249 10.1118L67.3933 16.5843H64.9793L67.8679 8.18657L65.1864 0.207031H67.8679L69.7961 6.25762L71.7958 0.207031H74.1345L71.4494 8.18657L74.3379 16.5843Z" fill="#4A494A"/>
</g>
<defs>
<clipPath id="clip0_408_1275">
<rect width="100" height="57.025" fill="white"/>
</clipPath>
</defs>
</svg>
