<svg width="71" height="95" viewBox="0 0 71 95" fill="none" xmlns="http://www.w3.org/2000/svg">
<g clip-path="url(#clip0_408_1307)">
<path d="M34.8026 0C16.0408 0.0037064 0.833418 15.2111 0.829712 33.9728C0.833418 52.7383 16.0408 67.942 34.8026 67.942C53.5643 67.942 68.7717 52.7383 68.7717 33.9728C68.7717 15.2074 53.5606 0.0037064 34.8026 0ZM53.6866 9.266C51.8853 10.6448 49.9395 11.8382 47.8639 12.7982C47.5414 11.9494 47.1967 11.134 46.8298 10.3557C45.6364 7.79826 44.2205 5.58184 42.6008 3.85095C46.6853 4.91098 50.4361 6.7753 53.6866 9.266ZM34.8026 2.85763C38.079 2.79833 41.5964 5.86723 44.2465 11.5603C44.5874 12.2941 44.9099 13.0688 45.2175 13.8768C41.9596 15.0369 38.4571 15.6855 34.7951 15.6855C31.1332 15.6855 27.6344 15.0369 24.3765 13.8768C24.6841 13.0688 25.0065 12.2941 25.3475 11.5603C27.9939 5.86723 31.5187 2.79462 34.7951 2.85763H34.8026ZM26.9969 3.85095C25.3772 5.57813 23.9613 7.79826 22.7679 10.3557C22.4047 11.134 22.0563 11.9531 21.7301 12.7982C19.6545 11.8382 17.7124 10.6448 15.911 9.266C19.1616 6.78271 22.9124 4.91098 26.9969 3.85095ZM15.911 58.6723C17.7124 57.2972 19.6582 56.1037 21.7301 55.1401C22.0563 55.9926 22.4009 56.8043 22.7679 57.5863C23.9613 60.1437 25.3772 62.3601 26.9932 64.0873C22.9124 63.031 19.1616 61.163 15.911 58.6723ZM34.8026 65.0881C31.5224 65.1437 28.0013 62.0785 25.3549 56.3817C25.014 55.6479 24.6915 54.8769 24.3839 54.0689C27.6418 52.9088 31.1443 52.2602 34.8063 52.2602C38.4682 52.2602 41.967 52.9088 45.2249 54.0689C44.9173 54.8769 44.5949 55.6479 44.2539 56.3817C41.6038 62.0822 38.0827 65.1474 34.81 65.0881H34.8026ZM42.6045 64.0873C44.2205 62.3639 45.6364 60.1437 46.8298 57.5863C47.193 56.8043 47.5414 55.9851 47.8639 55.1401C49.9432 56.1037 51.8853 57.2972 53.6866 58.676C50.4361 61.1593 46.6853 63.031 42.6045 64.0873ZM55.9142 56.8005C53.7422 55.0734 51.359 53.6019 48.7979 52.4381C49.2983 50.837 49.7245 49.1357 50.0914 47.3678H47.1819C46.878 48.7614 46.5296 50.0994 46.1404 51.367C42.5897 50.1105 38.7795 49.4026 34.8026 49.4026C30.8256 49.4026 27.0154 50.1105 23.461 51.367C23.0718 50.0994 22.7271 48.7614 22.4232 47.3678H19.51C19.8732 49.1394 20.3031 50.8407 20.8035 52.4381C18.2424 53.6019 15.8592 55.0697 13.6872 56.7968C7.54941 51.1186 3.69846 42.9979 3.68364 33.9728C3.69846 24.9441 7.5457 16.827 13.6872 11.1451C15.8554 12.8723 18.2424 14.3438 20.8035 15.5076C20.3068 17.1087 19.8769 18.81 19.51 20.5779H22.4232C22.7271 19.1843 23.0718 17.8463 23.461 16.5787C27.0117 17.8352 30.8219 18.5431 34.7988 18.5431C38.7758 18.5431 42.586 17.8352 46.1404 16.5787C46.5296 17.8463 46.878 19.1843 47.1782 20.5779H50.0914C49.7282 18.8063 49.302 17.105 48.7979 15.5076C51.359 14.3438 53.7422 12.876 55.9142 11.1451C62.052 16.827 65.9029 24.9441 65.9178 33.9728C65.9029 43.0016 62.0557 51.1223 55.9142 56.8005ZM10.4663 27.6608H11.3373C11.96 27.6608 12.3603 27.7461 12.5345 27.9129C12.7087 28.0797 12.7977 28.4948 12.7977 29.1582V38.7541C12.7977 39.4287 12.705 39.8475 12.5271 40.0143C12.3492 40.1811 11.9526 40.2663 11.3373 40.2663H10.4663V42.7607H20.9221V40.2663H20.0622C19.4395 40.2663 19.0355 40.1811 18.8576 40.0143C18.6797 39.8475 18.5908 39.4287 18.5908 38.7541V29.1582C18.5908 28.4948 18.6797 28.0797 18.8539 27.9129C19.0281 27.7461 19.4321 27.6608 20.0622 27.6608H20.9221V25.1813H10.4663V27.6608ZM31.8745 31.3635C31.6076 31.3042 31.237 31.2227 30.7626 31.1189C28.8167 30.7149 27.8456 30.1219 27.8456 29.3398C27.8456 28.8172 28.0977 28.3799 28.6055 28.0204C29.1132 27.6608 29.7619 27.4792 30.5439 27.4792C31.8856 27.4792 32.9568 27.7869 33.7573 28.3947C34.5579 29.0026 35.1028 29.9329 35.3956 31.1745H38.3496V25.0738H35.8292L35.3548 25.9559C34.4653 25.5148 33.5498 25.185 32.6047 24.9737C31.6558 24.7624 30.6366 24.655 29.5469 24.655C27.3972 24.655 25.6663 25.1998 24.3579 26.2784C23.0459 27.3643 22.3935 28.7913 22.3935 30.5518C22.3935 31.371 22.5603 32.1048 22.8976 32.746C23.2349 33.3909 23.7575 33.9766 24.4654 34.5066C24.7619 34.7401 25.2475 34.9847 25.922 35.2516C26.5966 35.5147 27.5603 35.8335 28.8019 36.2078C29.1911 36.3301 29.7174 36.4784 30.3882 36.6563C32.4638 37.2308 33.4979 37.935 33.4979 38.78C33.4979 39.3286 33.257 39.7696 32.7789 40.1069C32.3007 40.4405 31.6669 40.611 30.8701 40.611C29.5543 40.611 28.4164 40.2255 27.4454 39.462C26.478 38.6985 25.7849 37.6385 25.3661 36.2819H22.8309V42.8348H25.2363L25.8887 41.8638C26.8338 42.3419 27.79 42.694 28.7537 42.9312C29.7174 43.1684 30.7218 43.2833 31.7633 43.2833C34.039 43.2833 35.8515 42.757 37.1932 41.7044C38.5386 40.6518 39.2095 39.2359 39.2095 37.4606C39.2095 35.8631 38.6609 34.6066 37.5712 33.68C36.4778 32.7534 34.5765 31.9825 31.8634 31.3598L31.8745 31.3635ZM43.457 27.1382C41.6483 28.795 40.7439 31.0744 40.7439 33.984C40.7439 36.8935 41.6446 39.1507 43.4496 40.8037C45.2546 42.4605 47.7379 43.287 50.9031 43.287C54.0684 43.287 56.6073 42.4642 58.4123 40.8149C60.221 39.1692 61.1254 36.8935 61.1254 33.984C61.1254 31.0744 60.2247 28.795 58.416 27.1382C56.6147 25.4852 54.1277 24.6587 50.955 24.6587C47.7824 24.6587 45.2657 25.4852 43.457 27.1382ZM53.5273 28.9173C54.0647 29.9736 54.3316 31.6712 54.3316 34.0099C54.3316 36.3486 54.061 38.0091 53.5273 39.0506C52.9861 40.0921 52.1226 40.611 50.9291 40.611C49.7356 40.611 48.8943 40.0884 48.3568 39.0395C47.8157 37.9869 47.5526 36.2856 47.5526 33.9284C47.5526 31.5711 47.8231 29.9403 48.3606 28.8951C48.9054 27.8499 49.7653 27.331 50.955 27.331C52.1448 27.331 52.9861 27.8573 53.5273 28.9173ZM69.0015 5.77827L68.1342 4.7479L70.2468 3.83983L69.0015 5.77827Z" fill="#4A494A"/>
<path d="M8.98022 82.7716V81.6523L10.8408 80.1067C10.9743 79.9918 11.1262 79.8658 11.3004 79.7212C11.4746 79.5804 11.6414 79.4247 11.8045 79.2617C11.9676 79.0986 12.0973 78.9244 12.2048 78.739C12.3086 78.5574 12.3605 78.3647 12.3605 78.1683C12.3605 77.8977 12.2752 77.6753 12.1084 77.5048C11.9416 77.3343 11.697 77.2491 11.3709 77.2491C11.0669 77.2491 10.8297 77.3158 10.6555 77.4529C10.4813 77.5901 10.3738 77.7606 10.3294 77.9718H9.021C9.05806 77.5233 9.1952 77.1527 9.42499 76.8562C9.65479 76.5634 9.94759 76.341 10.3034 76.1965C10.6592 76.0519 11.0299 75.9778 11.4227 75.9778C11.8453 75.9778 12.2344 76.0556 12.5791 76.215C12.9238 76.3744 13.2018 76.6042 13.4057 76.9044C13.6095 77.2046 13.7096 77.5752 13.7096 78.02C13.7096 78.3981 13.6392 78.7428 13.4946 79.0504C13.3538 79.358 13.1573 79.6434 12.909 79.9066C12.6607 80.1697 12.3827 80.4218 12.0751 80.6627L11.0113 81.5263H13.6985V82.779H8.98022V82.7716Z" fill="#4A494A"/>
<path d="M14.4508 82.7716V81.6523L16.3114 80.1067C16.4448 79.9918 16.5968 79.8658 16.771 79.7212C16.9452 79.5804 17.112 79.4247 17.2751 79.2617C17.4382 79.0986 17.5679 78.9244 17.6754 78.739C17.7792 78.5574 17.831 78.3647 17.831 78.1683C17.831 77.8977 17.7458 77.6753 17.579 77.5048C17.4122 77.3343 17.1676 77.2491 16.8414 77.2491C16.5375 77.2491 16.3003 77.3158 16.1261 77.4529C15.9519 77.5901 15.8444 77.7606 15.7999 77.9718H14.4916C14.5286 77.5233 14.6658 77.1527 14.8956 76.8562C15.1254 76.5634 15.4182 76.341 15.774 76.1965C16.1298 76.0519 16.5004 75.9778 16.8933 75.9778C17.3159 75.9778 17.705 76.0556 18.0497 76.215C18.3944 76.3744 18.6724 76.6042 18.8762 76.9044C19.0801 77.2046 19.1802 77.5752 19.1802 78.02C19.1802 78.3981 19.1097 78.7428 18.9652 79.0504C18.8244 79.358 18.6279 79.6434 18.3796 79.9066C18.1313 80.1697 17.8533 80.4218 17.5456 80.6627L16.4819 81.5263H19.169V82.779H14.4508V82.7716Z" fill="#4A494A"/>
<path d="M22.6976 82.8454C22.2047 82.8454 21.7858 82.7564 21.4448 82.5785C21.1039 82.4006 20.8259 82.156 20.6109 81.8409C20.3959 81.5296 20.2403 81.1627 20.1439 80.7476C20.0475 80.3324 20.0031 79.8914 20.0031 79.4244C20.0031 78.9574 20.0512 78.4941 20.1513 78.0752C20.2477 77.6564 20.407 77.2895 20.6257 76.9744C20.8444 76.6594 21.1261 76.4111 21.4708 76.2332C21.8155 76.0553 22.2306 75.9663 22.7198 75.9663C23.2091 75.9663 23.6501 76.059 23.9948 76.2406C24.3395 76.4222 24.6175 76.6779 24.8288 77.0041C25.04 77.3303 25.192 77.7009 25.2847 78.1086C25.3773 78.5163 25.4218 78.95 25.4218 79.3984C25.4218 79.8469 25.3736 80.2954 25.281 80.7068C25.1846 81.1182 25.0326 81.4851 24.8251 81.8039C24.6175 82.1226 24.3395 82.3747 23.9911 82.56C23.6427 82.7453 23.2128 82.8343 22.7013 82.8343L22.6976 82.8454ZM22.6976 81.5926C23.0089 81.5926 23.2536 81.5222 23.4315 81.3776C23.6131 81.2368 23.7465 81.0515 23.8392 80.8217C23.9318 80.5956 23.9911 80.3547 24.0208 80.1064C24.0504 79.858 24.0653 79.6245 24.0653 79.4095C24.0653 79.2057 24.0504 78.9796 24.0208 78.7313C23.9911 78.4829 23.9318 78.2457 23.8466 78.0197C23.7576 77.7936 23.6242 77.6082 23.4463 77.4637C23.2684 77.3191 23.0275 77.245 22.7235 77.245C22.4196 77.245 22.175 77.3154 21.9934 77.46C21.8118 77.6045 21.6709 77.7861 21.582 78.0159C21.4893 78.242 21.43 78.4792 21.3967 78.7276C21.3633 78.9759 21.3485 79.202 21.3485 79.4095C21.3485 79.6171 21.3633 79.8506 21.393 80.1026C21.4226 80.3547 21.4782 80.5956 21.5672 80.8254C21.6561 81.0515 21.7895 81.2368 21.9711 81.3814C22.1528 81.5259 22.3937 81.5963 22.6976 81.5963V81.5926Z" fill="#4A494A"/>
<path d="M28.9651 82.8454C28.4721 82.8454 28.0533 82.7564 27.7123 82.5785C27.3713 82.4006 27.0933 82.156 26.8784 81.8409C26.6634 81.5296 26.5077 81.1627 26.4113 80.7476C26.315 80.3324 26.2705 79.8914 26.2705 79.4244C26.2705 78.9574 26.3187 78.4941 26.4188 78.0752C26.5151 77.6564 26.6745 77.2895 26.8932 76.9744C27.1119 76.6594 27.3935 76.4111 27.7382 76.2332C28.0829 76.0553 28.4981 75.9663 28.9873 75.9663C29.4765 75.9663 29.9176 76.059 30.2623 76.2406C30.607 76.4222 30.885 76.6779 31.0962 77.0041C31.3075 77.3303 31.4595 77.7009 31.5521 78.1086C31.6448 78.5163 31.6893 78.95 31.6893 79.3984C31.6893 79.8469 31.6411 80.2954 31.5484 80.7068C31.4521 81.1182 31.3001 81.4851 31.0925 81.8039C30.885 82.1226 30.607 82.3747 30.2586 82.56C29.9102 82.7453 29.4802 82.8343 28.9688 82.8343L28.9651 82.8454ZM28.9651 81.5926C29.2764 81.5926 29.521 81.5222 29.6989 81.3776C29.8805 81.2368 30.014 81.0515 30.1066 80.8217C30.1993 80.5956 30.2586 80.3547 30.2882 80.1064C30.3179 79.858 30.3327 79.6245 30.3327 79.4095C30.3327 79.2057 30.3179 78.9796 30.2882 78.7313C30.2586 78.4829 30.1993 78.2457 30.114 78.0197C30.0251 77.7936 29.8917 77.6082 29.7138 77.4637C29.5358 77.3191 29.2949 77.245 28.991 77.245C28.6871 77.245 28.4425 77.3154 28.2608 77.46C28.0792 77.6045 27.9384 77.7861 27.8494 78.0159C27.7568 78.242 27.6975 78.4792 27.6641 78.7276C27.6308 78.9759 27.6159 79.202 27.6159 79.4095C27.6159 79.6171 27.6308 79.8506 27.6604 80.1026C27.6901 80.3547 27.7457 80.5956 27.8346 80.8254C27.9236 81.0515 28.057 81.2368 28.2386 81.3814C28.4202 81.5259 28.6611 81.5963 28.9651 81.5963V81.5926Z" fill="#4A494A"/>
<path d="M35.2289 82.8454C34.7359 82.8454 34.3171 82.7564 33.9761 82.5785C33.6351 82.4006 33.3571 82.156 33.1422 81.8409C32.9272 81.5296 32.7715 81.1627 32.6751 80.7476C32.5788 80.3324 32.5343 79.8914 32.5343 79.4244C32.5343 78.9574 32.5825 78.4941 32.6826 78.0752C32.7789 77.6564 32.9383 77.2895 33.157 76.9744C33.3757 76.6594 33.6573 76.4111 34.002 76.2332C34.3467 76.0553 34.7618 75.9663 35.2511 75.9663C35.7403 75.9663 36.1814 76.059 36.5261 76.2406C36.8708 76.4222 37.1488 76.6779 37.36 77.0041C37.5713 77.3303 37.7233 77.7009 37.8159 78.1086C37.9086 78.5163 37.9531 78.95 37.9531 79.3984C37.9531 79.8469 37.9049 80.2954 37.8122 80.7068C37.7158 81.1182 37.5639 81.4851 37.3563 81.8039C37.1488 82.1226 36.8708 82.3747 36.5224 82.56C36.174 82.7453 35.744 82.8343 35.2326 82.8343L35.2289 82.8454ZM35.2289 81.5926C35.5402 81.5926 35.7848 81.5222 35.9627 81.3776C36.1443 81.2368 36.2778 81.0515 36.3704 80.8217C36.4631 80.5956 36.5224 80.3547 36.552 80.1064C36.5817 79.858 36.5965 79.6245 36.5965 79.4095C36.5965 79.2057 36.5817 78.9796 36.552 78.7313C36.5224 78.4829 36.4631 78.2457 36.3778 78.0197C36.2889 77.7936 36.1555 77.6082 35.9775 77.4637C35.7996 77.3191 35.5587 77.245 35.2548 77.245C34.9509 77.245 34.7063 77.3154 34.5246 77.46C34.343 77.6045 34.2022 77.7861 34.1132 78.0159C34.0206 78.242 33.9613 78.4792 33.9279 78.7276C33.8946 78.9759 33.8797 79.202 33.8797 79.4095C33.8797 79.6171 33.8945 79.8506 33.9242 80.1026C33.9539 80.3547 34.0094 80.5956 34.0984 80.8254C34.1874 81.0515 34.3208 81.2368 34.5024 81.3814C34.684 81.5259 34.9249 81.5963 35.2289 81.5963V81.5926Z" fill="#4A494A"/>
<path d="M39.7212 78.7719C39.4988 78.7719 39.3061 78.7015 39.143 78.557C38.9799 78.4161 38.8947 78.2123 38.8947 77.9528C38.8947 77.7749 38.9354 77.6229 39.0133 77.4969C39.0911 77.3709 39.1949 77.2708 39.3209 77.2041C39.4469 77.1337 39.584 77.1003 39.7286 77.1003C39.951 77.1003 40.14 77.1745 40.3031 77.3264C40.4662 77.4784 40.544 77.6822 40.544 77.9454C40.544 78.2086 40.4625 78.4161 40.2957 78.557C40.1326 78.6978 39.9362 78.7719 39.7175 78.7719H39.7212ZM39.7212 81.9928C39.4988 81.9928 39.3061 81.9224 39.143 81.7778C38.9799 81.637 38.8947 81.4331 38.8947 81.1737C38.8947 80.9958 38.9354 80.8438 39.0133 80.7178C39.0911 80.5918 39.1949 80.4954 39.3209 80.4287C39.4469 80.362 39.584 80.3286 39.7286 80.3286C39.951 80.3286 40.14 80.4027 40.3031 80.551C40.4662 80.6993 40.544 80.9031 40.544 81.1626C40.544 81.422 40.4625 81.6259 40.2957 81.7704C40.1326 81.9149 39.9362 81.9891 39.7175 81.9891L39.7212 81.9928Z" fill="#4A494A"/>
<path d="M41.2666 82.7716V81.6523L43.1272 80.1067C43.2606 79.9918 43.4126 79.8658 43.5868 79.7212C43.761 79.5804 43.9278 79.4247 44.0909 79.2617C44.254 79.0986 44.3837 78.9244 44.4912 78.739C44.5949 78.5574 44.6468 78.3647 44.6468 78.1683C44.6468 77.8977 44.5616 77.6753 44.3948 77.5048C44.228 77.3343 43.9834 77.2491 43.6572 77.2491C43.3533 77.2491 43.1161 77.3158 42.9419 77.4529C42.7677 77.5901 42.6602 77.7606 42.6157 77.9718H41.3074C41.3444 77.5233 41.4816 77.1527 41.7114 76.8562C41.9412 76.5634 42.234 76.341 42.5898 76.1965C42.9456 76.0519 43.3162 75.9778 43.7091 75.9778C44.1316 75.9778 44.5208 76.0556 44.8655 76.215C45.2102 76.3744 45.4882 76.6042 45.692 76.9044C45.8959 77.2046 45.996 77.5752 45.996 78.02C45.996 78.3981 45.9255 78.7428 45.781 79.0504C45.6402 79.358 45.4437 79.6434 45.1954 79.9066C44.9471 80.1697 44.6691 80.4218 44.3614 80.6627L43.2977 81.5263H45.9848V82.779H41.2666V82.7716Z" fill="#4A494A"/>
<path d="M49.5171 82.8454C49.0241 82.8454 48.6053 82.7564 48.2643 82.5785C47.9233 82.4006 47.6453 82.156 47.4304 81.8409C47.2154 81.5296 47.0597 81.1627 46.9634 80.7476C46.867 80.3324 46.8225 79.8914 46.8225 79.4244C46.8225 78.9574 46.8707 78.4941 46.9708 78.0752C47.0671 77.6564 47.2265 77.2895 47.4452 76.9744C47.6639 76.6594 47.9456 76.4111 48.2902 76.2332C48.6349 76.0553 49.0501 75.9663 49.5393 75.9663C50.0285 75.9663 50.4696 76.059 50.8143 76.2406C51.159 76.4222 51.437 76.6779 51.6482 77.0041C51.8595 77.3303 52.0115 77.7009 52.1041 78.1086C52.1968 78.5163 52.2413 78.95 52.2413 79.3984C52.2413 79.8469 52.1931 80.2954 52.1004 80.7068C52.0041 81.1182 51.8521 81.4851 51.6445 81.8039C51.437 82.1226 51.159 82.3747 50.8106 82.56C50.4622 82.7453 50.0322 82.8343 49.5208 82.8343L49.5171 82.8454ZM49.5171 81.5926C49.8284 81.5926 50.073 81.5222 50.2509 81.3776C50.4325 81.2368 50.566 81.0515 50.6586 80.8217C50.7513 80.5956 50.8106 80.3547 50.8402 80.1064C50.8699 79.858 50.8847 79.6245 50.8847 79.4095C50.8847 79.2057 50.8699 78.9796 50.8402 78.7313C50.8106 78.4829 50.7513 78.2457 50.666 78.0197C50.5771 77.7936 50.4437 77.6082 50.2658 77.4637C50.0878 77.3191 49.8469 77.245 49.543 77.245C49.2391 77.245 48.9945 77.3154 48.8128 77.46C48.6312 77.6045 48.4904 77.7861 48.4014 78.0159C48.3088 78.242 48.2495 78.4792 48.2161 78.7276C48.1828 78.9759 48.1679 79.202 48.1679 79.4095C48.1679 79.6171 48.1828 79.8506 48.2124 80.1026C48.2421 80.3547 48.2977 80.5956 48.3866 80.8254C48.4756 81.0515 48.609 81.2368 48.7906 81.3814C48.9722 81.5259 49.2131 81.5963 49.5171 81.5963V81.5926Z" fill="#4A494A"/>
<path d="M54.1018 82.7715V77.8457H52.7823V76.819C53.0418 76.8116 53.2753 76.7894 53.4866 76.7486C53.6978 76.7078 53.8832 76.63 54.0462 76.5188C54.2093 76.4076 54.3539 76.2519 54.4725 76.0481H55.4584V82.7678H54.1018V82.7715Z" fill="#4A494A"/>
<path d="M59.313 82.8453C58.998 82.8453 58.6903 82.8082 58.3938 82.7378C58.0973 82.6637 57.8267 82.5488 57.5821 82.3857C57.3375 82.2226 57.1448 82.0114 57.0039 81.7445C56.8631 81.4776 56.7889 81.1589 56.7889 80.7845C56.7889 80.5362 56.826 80.3138 56.8964 80.1137C56.9706 79.9135 57.078 79.7356 57.2189 79.5837C57.3597 79.4317 57.5339 79.302 57.7378 79.2093C57.5673 79.1018 57.4264 78.9721 57.319 78.8239C57.2115 78.6756 57.1336 78.5125 57.0817 78.3346C57.0299 78.1567 57.0039 77.9788 57.0039 77.7935C57.0039 77.4599 57.0706 77.1745 57.2041 76.9447C57.3375 76.7149 57.5154 76.5259 57.7341 76.385C57.9528 76.2442 58.2048 76.1367 58.4828 76.0737C58.7607 76.0107 59.0424 75.9736 59.3278 75.9736C59.6132 75.9736 59.8986 76.007 60.1729 76.0737C60.4435 76.1404 60.6918 76.2479 60.9142 76.3962C61.1365 76.5444 61.3145 76.7371 61.4442 76.9744C61.5776 77.2116 61.6443 77.497 61.6443 77.8342C61.6443 78.0047 61.6184 78.1789 61.5628 78.3531C61.5072 78.5273 61.4256 78.6867 61.3145 78.8313C61.2033 78.9758 61.0624 79.1018 60.8919 79.2019C61.0958 79.2909 61.27 79.4095 61.4145 79.5614C61.5591 79.7134 61.6703 79.895 61.7481 80.1026C61.8259 80.3101 61.863 80.5473 61.863 80.8031C61.863 81.1774 61.7889 81.4925 61.6443 81.7519C61.4998 82.0114 61.3033 82.2226 61.055 82.382C60.8067 82.5414 60.5361 82.66 60.2322 82.7341C59.932 82.8082 59.6243 82.8416 59.3056 82.8416L59.313 82.8453ZM59.3241 81.6222C59.465 81.6222 59.6021 81.6074 59.7429 81.574C59.8838 81.5406 60.0098 81.4888 60.121 81.4183C60.2359 81.3442 60.3248 81.2552 60.3916 81.1441C60.4583 81.0329 60.4916 80.8957 60.4916 80.7289C60.4916 80.5251 60.4397 80.362 60.3397 80.2323C60.2396 80.1026 60.1025 80.0025 59.9283 79.9395C59.7541 79.8728 59.5539 79.8394 59.3241 79.8394C59.0943 79.8394 58.9016 79.8728 58.72 79.9395C58.5384 80.0062 58.3975 80.1063 58.2974 80.2323C58.1974 80.362 58.1455 80.5288 58.1455 80.7289C58.1455 80.8957 58.1788 81.0329 58.2493 81.1441C58.3197 81.2552 58.4086 81.3479 58.5198 81.4183C58.631 81.4925 58.757 81.5443 58.8942 81.574C59.035 81.6037 59.1759 81.6222 59.3204 81.6222H59.3241ZM59.3315 78.8016C59.5354 78.8016 59.7059 78.7683 59.8504 78.7015C59.9913 78.6348 60.1025 78.5385 60.184 78.4162C60.2618 78.2938 60.3026 78.153 60.3026 78.0047C60.3026 77.8157 60.2618 77.66 60.1803 77.534C60.0988 77.4117 59.9839 77.3153 59.8356 77.2486C59.6873 77.1819 59.5094 77.1486 59.3093 77.1486C59.1091 77.1486 58.9424 77.1819 58.8015 77.2486C58.6607 77.3153 58.5495 77.408 58.4679 77.5303C58.3901 77.6489 58.3493 77.7972 58.3493 77.9677C58.3493 78.1382 58.3901 78.2864 58.4716 78.4124C58.5532 78.5385 58.6681 78.6348 58.8201 78.7015C58.9683 78.7683 59.1425 78.8016 59.3389 78.8016H59.3315Z" fill="#4A494A"/>
<path d="M10.5332 94.2391C10.2552 94.2391 9.98463 94.202 9.72518 94.1316C9.46573 94.0575 9.23223 93.9463 9.02097 93.798C8.8097 93.6498 8.64662 93.457 8.52431 93.2198C8.402 92.9826 8.33899 92.7009 8.33899 92.3711C8.33899 92.0783 8.38717 91.8225 8.48725 91.6038C8.58732 91.3852 8.72445 91.1813 8.89866 91.0071C9.07656 90.8292 9.27671 90.6735 9.5065 90.5438C9.32118 90.3585 9.17663 90.1435 9.06915 89.8878C8.96166 89.6357 8.90607 89.3874 8.90607 89.1465C8.90607 88.787 8.99131 88.4719 9.1581 88.2051C9.32489 87.9382 9.55469 87.7344 9.84749 87.5861C10.1403 87.4416 10.4739 87.3674 10.8519 87.3674C11.1744 87.3674 11.4709 87.4267 11.7452 87.549C12.0157 87.6677 12.2381 87.8493 12.4049 88.0902C12.5717 88.3311 12.6569 88.6276 12.6569 88.9834C12.6569 89.2688 12.5976 89.5208 12.4827 89.7395C12.3641 89.9582 12.2122 90.1509 12.0194 90.3214C11.8267 90.4919 11.6192 90.6439 11.3968 90.7773L12.3827 91.8892C12.4642 91.7706 12.5309 91.6187 12.5791 91.4371C12.6273 91.2554 12.6569 91.0961 12.6681 90.9589H13.817C13.7726 91.3259 13.7021 91.652 13.6021 91.9411C13.502 92.2302 13.376 92.4934 13.2166 92.7343L14.5064 94.1687H12.846L12.353 93.6572C12.0936 93.8796 11.8008 94.0315 11.4783 94.1168C11.1559 94.202 10.8371 94.2465 10.5295 94.2465L10.5332 94.2391ZM10.5888 93.0901C10.7519 93.0901 10.9298 93.0679 11.1151 93.0197C11.3004 92.9715 11.4635 92.89 11.5932 92.7677L10.2848 91.3259C10.1218 91.4222 9.98834 91.5223 9.88456 91.6298C9.78448 91.7373 9.71036 91.8448 9.66959 91.9522C9.62882 92.0597 9.60658 92.1746 9.60658 92.2932C9.60658 92.4711 9.65476 92.6194 9.74742 92.738C9.84008 92.8566 9.9661 92.9456 10.1181 93.0049C10.27 93.0605 10.4257 93.0901 10.5814 93.0901H10.5888ZM10.611 90.0138C10.763 89.9323 10.9038 89.8433 11.0298 89.7506C11.1559 89.658 11.2596 89.5542 11.3375 89.443C11.4153 89.3281 11.4561 89.2058 11.4561 89.0724C11.4561 88.976 11.4338 88.8833 11.3894 88.787C11.3449 88.6906 11.2745 88.6165 11.1818 88.5535C11.0854 88.4942 10.9631 88.4645 10.8112 88.4645C10.5702 88.4645 10.396 88.5312 10.2886 88.6647C10.1811 88.7981 10.1255 88.9464 10.1255 89.1094C10.1255 89.228 10.1477 89.3429 10.1885 89.4504C10.2293 89.5579 10.2886 89.658 10.3627 89.7506C10.4405 89.8433 10.5221 89.9286 10.611 90.0138Z" fill="#4A494A"/>
<path d="M20.0735 94.2391C19.688 94.2391 19.3285 94.1761 19.0024 94.0427C18.6725 93.913 18.3945 93.7128 18.1721 93.4386C17.946 93.168 17.8015 92.8233 17.7385 92.4119H19.0691C19.1395 92.6009 19.2729 92.7455 19.4768 92.8455C19.6806 92.9456 19.8956 92.9938 20.1217 92.9938C20.3811 92.9938 20.5998 92.9419 20.7814 92.8381C20.963 92.7343 21.1076 92.5935 21.2151 92.4193C21.3226 92.2451 21.4004 92.0524 21.4523 91.8411C21.5042 91.6298 21.5301 91.4112 21.5375 91.1925V91.0294C21.3967 91.2332 21.2299 91.3889 21.0335 91.5038C20.837 91.6187 20.6332 91.6965 20.4256 91.741C20.2181 91.7855 20.0179 91.8077 19.8289 91.8077C19.4286 91.8077 19.0691 91.7225 18.7466 91.5557C18.4242 91.3889 18.1684 91.1443 17.9831 90.8292C17.7978 90.5142 17.7014 90.1287 17.7014 89.6803C17.7014 89.1799 17.8163 88.7574 18.0424 88.4127C18.2685 88.068 18.5724 87.8085 18.9505 87.6306C19.3285 87.4527 19.7399 87.3638 20.1884 87.3638C20.6814 87.3638 21.0965 87.4601 21.4301 87.6566C21.7636 87.853 22.0305 88.1199 22.2269 88.4534C22.4234 88.7907 22.5642 89.1614 22.6495 89.5728C22.7347 89.9842 22.7792 90.4067 22.7792 90.8367C22.7792 91.3037 22.731 91.7447 22.6309 92.1524C22.5309 92.5601 22.3789 92.9197 22.1676 93.2347C21.9564 93.5497 21.6784 93.7944 21.3337 93.9686C20.989 94.1465 20.5702 94.2354 20.0772 94.2354L20.0735 94.2391ZM20.1328 90.6699C20.3811 90.6699 20.585 90.618 20.7444 90.5179C20.9074 90.4178 21.0298 90.2881 21.115 90.1324C21.2003 89.9768 21.2447 89.8137 21.2447 89.6432C21.2447 89.4282 21.1965 89.2429 21.0965 89.0872C21.0001 88.9316 20.8704 88.813 20.7073 88.7277C20.5442 88.6425 20.3626 88.598 20.1513 88.598C19.9253 88.598 19.7288 88.6462 19.562 88.7388C19.3989 88.8352 19.2692 88.9612 19.184 89.1169C19.0987 89.2726 19.0505 89.4468 19.0505 89.6284C19.0505 89.9212 19.1432 90.1658 19.3322 90.3659C19.5176 90.5661 19.7881 90.6662 20.1328 90.6662V90.6699Z" fill="#4A494A"/>
<path d="M26.3222 94.2391C25.8293 94.2391 25.4105 94.1502 25.0695 93.9723C24.7285 93.7944 24.4505 93.5497 24.2355 93.2384C24.0206 92.9234 23.8649 92.5601 23.7685 92.145C23.6722 91.7299 23.6277 91.2888 23.6277 90.8218C23.6277 90.3548 23.6759 89.8915 23.7759 89.4727C23.8723 89.0539 24.0317 88.6869 24.2504 88.3719C24.469 88.0569 24.7507 87.8085 25.0954 87.6306C25.4401 87.4527 25.8552 87.3638 26.3445 87.3638C26.8337 87.3638 27.2748 87.4564 27.6195 87.638C27.9642 87.8234 28.2422 88.0754 28.4534 88.4016C28.6647 88.7277 28.8166 89.0947 28.9093 89.5061C29.002 89.9175 29.0464 90.3474 29.0464 90.7959C29.0464 91.2444 28.9983 91.6965 28.9056 92.108C28.8129 92.5194 28.6573 92.8863 28.4497 93.2051C28.2421 93.5238 27.9642 93.7758 27.6158 93.9612C27.2674 94.1465 26.8374 94.2354 26.3259 94.2354L26.3222 94.2391ZM26.3222 92.9827C26.6336 92.9827 26.8782 92.9122 27.0561 92.7677C27.2377 92.6268 27.3711 92.4415 27.4638 92.2117C27.5565 91.9856 27.6158 91.7447 27.6454 91.4964C27.6751 91.2481 27.6899 91.0146 27.6899 90.7996C27.6899 90.5957 27.6751 90.3697 27.6454 90.1213C27.6158 89.873 27.5565 89.6358 27.4712 89.4097C27.3823 89.1836 27.2488 88.9983 27.0709 88.8537C26.893 88.7092 26.6521 88.6351 26.3482 88.6351C26.0443 88.6351 25.7996 88.7055 25.618 88.85C25.4327 88.9909 25.2956 89.1762 25.2066 89.406C25.1177 89.6358 25.0546 89.8693 25.0213 90.1176C24.9879 90.3659 24.9731 90.592 24.9731 90.7996C24.9731 91.0072 24.9879 91.2407 25.0176 91.4927C25.0472 91.7447 25.1028 91.9856 25.1918 92.2154C25.2807 92.4452 25.4142 92.6269 25.5958 92.7714C25.7774 92.9122 26.0183 92.9864 26.3222 92.9864V92.9827Z" fill="#4A494A"/>
<path d="M32.5863 94.2391C32.0933 94.2391 31.6745 94.1502 31.3335 93.9723C30.9925 93.7944 30.7145 93.5497 30.4996 93.2384C30.2846 92.9234 30.1289 92.5601 30.0326 92.145C29.9362 91.7299 29.8917 91.2888 29.8917 90.8218C29.8917 90.3548 29.9399 89.8915 30.04 89.4727C30.1363 89.0539 30.2957 88.6869 30.5144 88.3719C30.7331 88.0569 31.0148 87.8085 31.3595 87.6306C31.7042 87.4527 32.1193 87.3638 32.6085 87.3638C33.0978 87.3638 33.5388 87.4564 33.8835 87.638C34.2282 87.8234 34.5062 88.0754 34.7175 88.4016C34.9287 88.7277 35.0807 89.0947 35.1733 89.5061C35.266 89.9175 35.3105 90.3474 35.3105 90.7959C35.3105 91.2444 35.2623 91.6965 35.1696 92.108C35.077 92.5194 34.9213 92.8863 34.7137 93.2051C34.5062 93.5238 34.2282 93.7758 33.8798 93.9612C33.5314 94.1465 33.1015 94.2354 32.59 94.2354L32.5863 94.2391ZM32.5863 92.9827C32.8976 92.9827 33.1422 92.9122 33.3201 92.7677C33.5018 92.6268 33.6352 92.4415 33.7278 92.2117C33.8205 91.9856 33.8798 91.7447 33.9095 91.4964C33.9391 91.2481 33.9539 91.0146 33.9539 90.7996C33.9539 90.5957 33.9391 90.3697 33.9095 90.1213C33.8798 89.873 33.8205 89.6358 33.7353 89.4097C33.6463 89.1836 33.5129 88.9983 33.335 88.8537C33.1571 88.7092 32.9161 88.6351 32.6122 88.6351C32.3083 88.6351 32.0637 88.7055 31.8821 88.85C31.6967 88.9909 31.5596 89.1762 31.4706 89.406C31.3817 89.6358 31.3187 89.8693 31.2853 90.1176C31.252 90.3659 31.2371 90.592 31.2371 90.7996C31.2371 91.0072 31.252 91.2407 31.2816 91.4927C31.3113 91.7447 31.3669 91.9856 31.4558 92.2154C31.5448 92.4452 31.6782 92.6269 31.8598 92.7714C32.0414 92.9122 32.2823 92.9864 32.5863 92.9864V92.9827Z" fill="#4A494A"/>
<path d="M37.171 94.1611V89.2353H35.8516V88.2087C36.111 88.2013 36.3445 88.179 36.5558 88.1383C36.767 88.0975 36.9524 88.0196 37.1154 87.9085C37.2785 87.7973 37.4231 87.6416 37.5417 87.4377H38.5276V94.1574H37.171V94.1611Z" fill="#4A494A"/>
<path d="M40.7772 90.1657C40.5548 90.1657 40.3621 90.0953 40.199 89.9508C40.0359 89.8099 39.9507 89.6061 39.9507 89.3466C39.9507 89.1687 39.9915 89.0167 40.0693 88.8907C40.1471 88.7647 40.2509 88.6646 40.3769 88.5979C40.5029 88.5275 40.6401 88.4941 40.7846 88.4941C41.007 88.4941 41.196 88.5683 41.3591 88.7202C41.5222 88.8722 41.6 89.076 41.6 89.3392C41.6 89.6024 41.5185 89.8099 41.3517 89.9508C41.1886 90.0916 40.9922 90.1657 40.7735 90.1657H40.7772ZM40.7772 93.3829C40.5548 93.3829 40.3621 93.3125 40.199 93.1679C40.0359 93.0271 39.9507 92.8232 39.9507 92.5638C39.9507 92.3859 39.9915 92.2339 40.0693 92.1079C40.1471 91.9819 40.2509 91.8855 40.3769 91.8188C40.5029 91.7521 40.6401 91.7187 40.7846 91.7187C41.007 91.7187 41.196 91.7928 41.3591 91.9411C41.5222 92.0893 41.6 92.2932 41.6 92.5527C41.6 92.8121 41.5185 93.016 41.3517 93.1605C41.1886 93.305 40.9922 93.3792 40.7735 93.3792L40.7772 93.3829Z" fill="#4A494A"/>
<path d="M42.3267 94.1613V93.0419L44.1873 91.4964C44.3207 91.3815 44.4727 91.2554 44.6469 91.1109C44.8211 90.9701 44.9879 90.8144 45.1509 90.6513C45.314 90.4882 45.4437 90.314 45.5512 90.1287C45.655 89.9434 45.7069 89.7544 45.7069 89.5579C45.7069 89.2873 45.6216 89.065 45.4549 88.8945C45.2881 88.724 45.0435 88.6387 44.7173 88.6387C44.4134 88.6387 44.1762 88.7054 44.002 88.8426C43.8278 88.9797 43.7203 89.1502 43.6758 89.3615H42.3674C42.4045 88.913 42.5416 88.5387 42.7714 88.2458C43.0012 87.953 43.294 87.7307 43.6498 87.5861C44.0057 87.4416 44.3763 87.3674 44.7692 87.3674C45.1917 87.3674 45.5809 87.4453 45.9256 87.6046C46.274 87.764 46.5482 87.9901 46.7521 88.294C46.956 88.5942 47.056 88.9649 47.056 89.4097C47.056 89.7877 46.9856 90.1324 46.8411 90.44C46.7002 90.7477 46.5038 91.0331 46.2554 91.2962C46.0071 91.5594 45.7291 91.8114 45.4215 92.0523L44.3578 92.9159H47.0449V94.1687H42.3267V94.1613Z" fill="#4A494A"/>
<path d="M50.5772 94.2391C50.0843 94.2391 49.6655 94.1502 49.3245 93.9723C48.9835 93.7944 48.7055 93.5497 48.4905 93.2384C48.2756 92.9234 48.1199 92.5601 48.0235 92.145C47.9272 91.7299 47.8827 91.2888 47.8827 90.8218C47.8827 90.3548 47.9309 89.8915 48.0309 89.4727C48.1273 89.0539 48.2867 88.6869 48.5054 88.3719C48.724 88.0569 49.0057 87.8085 49.3504 87.6306C49.6951 87.4527 50.1102 87.3638 50.5995 87.3638C51.0887 87.3638 51.5298 87.4564 51.8745 87.638C52.2192 87.8234 52.4972 88.0754 52.7084 88.4016C52.9197 88.7277 53.0716 89.0947 53.1643 89.5061C53.257 89.9175 53.3014 90.3474 53.3014 90.7959C53.3014 91.2444 53.2533 91.6965 53.1606 92.108C53.0679 92.5194 52.9123 92.8863 52.7047 93.2051C52.4972 93.5238 52.2192 93.7758 51.8708 93.9612C51.5224 94.1465 51.0924 94.2354 50.5809 94.2354L50.5772 94.2391ZM50.5772 92.9827C50.8886 92.9827 51.1332 92.9122 51.3111 92.7677C51.4927 92.6268 51.6262 92.4415 51.7188 92.2117C51.8115 91.9856 51.8708 91.7447 51.9004 91.4964C51.9301 91.2481 51.9449 91.0146 51.9449 90.7996C51.9449 90.5957 51.9301 90.3697 51.9004 90.1213C51.8708 89.873 51.8115 89.6358 51.7262 89.4097C51.6373 89.1836 51.5038 88.9983 51.3259 88.8537C51.148 88.7092 50.9071 88.6351 50.6032 88.6351C50.2993 88.6351 50.0546 88.7055 49.873 88.85C49.6877 88.9909 49.5506 89.1762 49.4616 89.406C49.3727 89.6358 49.3097 89.8693 49.2763 90.1176C49.2429 90.3659 49.2281 90.592 49.2281 90.7996C49.2281 91.0072 49.2429 91.2407 49.2726 91.4927C49.3022 91.7447 49.3578 91.9856 49.4468 92.2154C49.5357 92.4452 49.6692 92.6269 49.8508 92.7714C50.0324 92.9122 50.2733 92.9864 50.5772 92.9864V92.9827Z" fill="#4A494A"/>
<path d="M55.1618 94.1611V89.2353H53.8423V88.2087C54.1017 88.2013 54.3352 88.179 54.5465 88.1383C54.7578 88.0975 54.9431 88.0196 55.1062 87.9085C55.2692 87.7973 55.4138 87.6416 55.5324 87.4377H56.5183V94.1574H55.1618V94.1611Z" fill="#4A494A"/>
<path d="M60.325 94.239C60.01 94.239 59.7135 94.1982 59.4429 94.1204C59.1723 94.0425 58.9277 93.9202 58.7164 93.7534C58.5052 93.5904 58.3273 93.3791 58.1864 93.1271C58.0456 92.875 57.9455 92.5748 57.8973 92.2264H59.2353C59.2724 92.3524 59.3428 92.4747 59.4429 92.5859C59.543 92.7008 59.6727 92.7935 59.8284 92.8602C59.984 92.9306 60.1582 92.964 60.3547 92.964C60.5956 92.964 60.7957 92.9195 60.9625 92.8343C61.1256 92.749 61.2553 92.6304 61.3406 92.4784C61.4295 92.3265 61.474 92.1449 61.474 91.9373C61.474 91.6223 61.3739 91.3665 61.1738 91.1738C60.9736 90.9811 60.6957 90.8847 60.3324 90.8847C60.1249 90.8847 59.9284 90.9218 59.7468 90.9922C59.5652 91.0626 59.3947 91.1627 59.2279 91.2924H58.0715L58.1939 87.4377H62.6193V88.6831H59.4763L59.3984 90.0508C59.5875 89.9173 59.8098 89.8247 60.0582 89.7691C60.3065 89.7172 60.5548 89.6912 60.8032 89.6986C61.2405 89.7098 61.6111 89.8061 61.9151 89.984C62.219 90.1619 62.4525 90.4066 62.6119 90.7253C62.775 91.0404 62.8528 91.411 62.8528 91.8372C62.8528 92.3487 62.7416 92.7861 62.5155 93.1456C62.2894 93.5051 61.9855 93.7794 61.6037 93.961C61.222 94.1463 60.792 94.2353 60.3176 94.2353L60.325 94.239Z" fill="#4A494A"/>
</g>
<defs>
<clipPath id="clip0_408_1307">
<rect width="70.8333" height="95" fill="white"/>
</clipPath>
</defs>
</svg>
