<svg width="90" height="101" viewBox="0 0 90 101" fill="none" xmlns="http://www.w3.org/2000/svg">
<g clip-path="url(#clip0_408_1288)">
<path d="M90.0432 32.2351L62.0177 52.3237L72.2714 84.6478L44.977 64.8015L16.8695 84.6478L27.3193 52.5624L0 32.2351H33.8781L44.7202 0L55.5624 32.2351H90.0432ZM52.3989 35.848L44.7202 12.0467L37.0416 35.848H11.1417L31.9451 50.8058L24.0952 74.7069L44.7702 60.3014L65.3453 75.0097L57.5739 51.098L78.2987 35.848H52.3989Z" fill="#4A494A"/>
<path d="M40.954 37.6581V45.1904L48.03 37.6581H53.3012L44.8594 47.7487L55.7122 59.0436H49.8382L40.954 50.6099V58.5911C39.8235 59.5282 37.8655 58.8441 36.4353 59.0436V37.6545H40.954V37.6581Z" fill="#4A494A"/>
<path d="M10.8352 98.2622C10.3858 98.2622 9.96494 98.191 9.57976 98.052C9.19458 97.913 8.87003 97.6886 8.61324 97.3857C8.35289 97.0829 8.1924 96.6873 8.12463 96.2099H9.4585C9.512 96.4166 9.61543 96.584 9.76165 96.7087C9.90788 96.8334 10.0826 96.9225 10.2859 96.976C10.4892 97.0294 10.7032 97.0579 10.9315 97.0579C11.1027 97.0579 11.2703 97.0365 11.4343 96.9938C11.5984 96.951 11.7339 96.8798 11.8409 96.7729C11.9479 96.6695 12.0014 96.5306 12.0014 96.3524C12.0014 96.217 11.9729 96.1101 11.9158 96.0246C11.8587 95.9391 11.7767 95.8714 11.6697 95.818C11.5627 95.7645 11.4343 95.7182 11.281 95.6754C11.1526 95.6398 11.0206 95.6077 10.8851 95.5828C10.7496 95.5579 10.614 95.5294 10.4821 95.4902C10.3501 95.4545 10.2253 95.4118 10.104 95.3619C9.87221 95.3013 9.65109 95.2265 9.4371 95.1374C9.22311 95.0483 9.03409 94.9379 8.87003 94.7989C8.70597 94.6635 8.57758 94.4889 8.48128 94.2823C8.38499 94.0756 8.33862 93.8262 8.33862 93.534C8.33862 93.2169 8.39212 92.9497 8.49912 92.7323C8.60611 92.5114 8.74877 92.3333 8.92709 92.1908C9.10542 92.0482 9.30871 91.9378 9.52983 91.8594C9.75095 91.781 9.97564 91.724 10.2003 91.6955C10.425 91.6634 10.639 91.6492 10.8387 91.6492C11.2596 91.6492 11.6376 91.724 11.9729 91.8701C12.3081 92.0162 12.5827 92.2335 12.7967 92.5257C13.0107 92.8179 13.132 93.1849 13.1605 93.6302H11.8908C11.8659 93.4485 11.7981 93.2989 11.6911 93.1813C11.5806 93.0673 11.4415 92.9818 11.2738 92.9247C11.1062 92.8713 10.9172 92.8428 10.7103 92.8428C10.5748 92.8428 10.4464 92.8571 10.318 92.8784C10.1896 92.9034 10.0755 92.939 9.97564 92.9924C9.87578 93.0459 9.79732 93.1136 9.73669 93.1991C9.67962 93.2846 9.65109 93.3879 9.65109 93.5091C9.65109 93.6302 9.68319 93.7371 9.75095 93.8226C9.81872 93.9117 9.91501 93.9865 10.047 94.0507C10.1789 94.1148 10.3323 94.1754 10.507 94.2288C10.6889 94.2894 10.8815 94.3393 11.0813 94.3749C11.281 94.4105 11.4736 94.4604 11.6555 94.521C11.8873 94.5816 12.1013 94.6528 12.3046 94.7348C12.5079 94.8167 12.6826 94.9201 12.836 95.0448C12.9893 95.1695 13.107 95.3263 13.1926 95.5187C13.2782 95.7111 13.321 95.9462 13.321 96.2241C13.321 96.5947 13.2532 96.9118 13.1142 97.1684C12.9786 97.4249 12.7896 97.6351 12.5578 97.7919C12.3224 97.9487 12.0585 98.0663 11.7589 98.1375C11.4593 98.2123 11.1526 98.248 10.8352 98.248V98.2622Z" fill="#4A494A"/>
<path d="M15.7033 98.187V92.9386H13.7311V91.7236H19.0024V92.9386H17.0194V98.187H15.7033Z" fill="#4A494A"/>
<path d="M18.5244 98.1874L21.0459 91.7275H22.5082L25.0012 98.1874H23.596L23.193 97.0828H20.3326L19.9296 98.1874H18.5244ZM20.7535 95.907H22.7828L21.7771 93.1136L20.7535 95.907Z" fill="#4A494A"/>
<path d="M25.6967 98.1874V91.7275H28.3003C28.6212 91.7275 28.9315 91.7596 29.2275 91.8237C29.5236 91.8879 29.791 91.9948 30.0264 92.148C30.2654 92.3012 30.4508 92.5114 30.5899 92.7822C30.7255 93.053 30.7968 93.3986 30.7968 93.8191C30.7968 94.129 30.7433 94.4105 30.6399 94.6599C30.5364 94.9094 30.3831 95.1231 30.1834 95.2977C29.9836 95.4723 29.7411 95.6113 29.4629 95.7075L30.8967 98.1909H29.4273L28.1683 95.9177H27.0092V98.1909H25.7038L25.6967 98.1874ZM27.0021 94.7561H28.2075C28.3965 94.7561 28.5677 94.7383 28.7247 94.7063C28.8816 94.6742 29.0136 94.6208 29.1277 94.5459C29.2418 94.4711 29.3274 94.3749 29.3916 94.2538C29.4558 94.1326 29.4879 93.983 29.4879 93.8084C29.495 93.5839 29.4451 93.4093 29.3452 93.2846C29.2454 93.1599 29.1063 93.0708 28.9244 93.0209C28.7461 92.9675 28.5321 92.9425 28.2896 92.9425H27.0021V94.7597V94.7561Z" fill="#4A494A"/>
<path d="M31.8701 95.5682V94.428H34.9658V95.5682H31.8701Z" fill="#4A494A"/>
<path d="M36.2177 98.1874V91.7275H37.523V94.4105H38.436L40.1159 91.7275H41.6138L39.5309 94.8666L41.6138 98.1874H40.0802L38.4895 95.6148H37.5194V98.1874H36.2141H36.2177Z" fill="#4A494A"/>
<path d="M44.9342 98.1874V91.7275H46.2396V94.4105H47.1526L48.8324 91.7275H50.3303L48.2475 94.8666L50.3303 98.1874H48.7967L47.2061 95.6148H46.236V98.1874H44.9307H44.9342Z" fill="#4A494A"/>
<path d="M53.9041 98.262C53.2407 98.262 52.67 98.123 52.1921 97.8415C51.7142 97.5601 51.3469 97.1752 51.0972 96.6764C50.8476 96.1776 50.7192 95.6111 50.7192 94.9661C50.7192 94.3212 50.8476 93.7298 51.1079 93.2309C51.3683 92.7321 51.7356 92.3437 52.2171 92.0658C52.6986 91.7879 53.2692 91.6489 53.9361 91.6489C54.6031 91.6489 55.1595 91.7843 55.6338 92.0587C56.1081 92.333 56.4755 92.7143 56.7358 93.2096C56.9962 93.7013 57.1246 94.2785 57.1246 94.9341C57.1246 95.5897 56.9962 96.1526 56.7358 96.655C56.4755 97.1574 56.1081 97.5494 55.6302 97.8309C55.1523 98.1123 54.5781 98.2549 53.9076 98.2549L53.9041 98.262ZM53.9219 97.0363C54.3606 97.0363 54.7172 96.9365 54.9918 96.737C55.2665 96.5375 55.4662 96.2774 55.591 95.9602C55.7158 95.6431 55.7765 95.3118 55.7765 94.9661C55.7765 94.7096 55.7408 94.4602 55.673 94.2072C55.6017 93.9578 55.4947 93.7333 55.3485 93.5302C55.2023 93.3307 55.0097 93.1704 54.7743 93.0528C54.5353 92.9352 54.25 92.8746 53.9148 92.8746C53.4832 92.8746 53.1301 92.9744 52.8555 93.1704C52.5809 93.3699 52.3776 93.6264 52.2492 93.9435C52.1172 94.2607 52.053 94.5991 52.053 94.9555C52.053 95.3118 52.1172 95.6538 52.2492 95.9674C52.3812 96.2845 52.5845 96.541 52.8626 96.737C53.1408 96.9365 53.4939 97.0327 53.9254 97.0327L53.9219 97.0363Z" fill="#4A494A"/>
<path d="M60.6732 98.262C60.2238 98.262 59.803 98.1907 59.4178 98.0518C59.0326 97.9128 58.708 97.6883 58.4513 97.3855C58.1909 97.0826 58.0304 96.6871 57.9626 96.2096H59.2965C59.35 96.4163 59.4534 96.5838 59.5997 96.7085C59.7459 96.8332 59.9206 96.9223 60.1239 96.9757C60.3272 97.0292 60.5412 97.0577 60.7695 97.0577C60.9407 97.0577 61.1083 97.0363 61.2724 96.9935C61.4364 96.9508 61.5719 96.8795 61.6789 96.7726C61.7859 96.6693 61.8394 96.5303 61.8394 96.3522C61.8394 96.2168 61.8109 96.1099 61.7538 96.0244C61.6968 95.9389 61.6147 95.8712 61.5077 95.8177C61.4007 95.7643 61.2723 95.7179 61.119 95.6752C60.9906 95.6396 60.8586 95.6075 60.7231 95.5826C60.5876 95.5576 60.4521 95.5291 60.3201 95.4899C60.1881 95.4543 60.0633 95.4115 59.9421 95.3616C59.7102 95.3011 59.4891 95.2262 59.2751 95.1372C59.0611 95.0481 58.8721 94.9376 58.708 94.7987C58.544 94.6633 58.4156 94.4887 58.3193 94.282C58.223 94.0754 58.1766 93.826 58.1766 93.5338C58.1766 93.2167 58.2301 92.9494 58.3371 92.7321C58.4441 92.5112 58.5868 92.333 58.7651 92.1905C58.9434 92.048 59.1467 91.9375 59.3678 91.8591C59.589 91.7808 59.8137 91.7238 60.0383 91.6952C60.263 91.6632 60.477 91.6489 60.6767 91.6489C61.0976 91.6489 61.4756 91.7237 61.8109 91.8698C62.1461 92.0159 62.4208 92.2333 62.6347 92.5254C62.8487 92.8176 62.97 93.1846 62.9985 93.63H61.7289C61.7039 93.4483 61.6361 93.2986 61.5291 93.181C61.4186 93.067 61.2795 92.9815 61.1119 92.9245C60.9442 92.8711 60.7552 92.8426 60.5484 92.8426C60.4128 92.8426 60.2844 92.8568 60.156 92.8782C60.0276 92.9031 59.9135 92.9388 59.8137 92.9922C59.7138 93.0456 59.6353 93.1133 59.5747 93.1989C59.5176 93.2844 59.4891 93.3877 59.4891 93.5088C59.4891 93.63 59.5212 93.7369 59.589 93.8224C59.6567 93.9115 59.753 93.9863 59.885 94.0504C60.0169 94.1146 60.1703 94.1751 60.3451 94.2286C60.527 94.2892 60.7195 94.339 60.9193 94.3747C61.119 94.4103 61.3116 94.4602 61.4935 94.5208C61.7253 94.5813 61.9393 94.6526 62.1426 94.7345C62.3459 94.8165 62.5206 94.9198 62.674 95.0445C62.8273 95.1692 62.945 95.326 63.0306 95.5184C63.1162 95.7108 63.159 95.946 63.159 96.2239C63.159 96.5945 63.0913 96.9116 62.9522 97.1681C62.8166 97.4247 62.6276 97.6349 62.3958 97.7917C62.1604 97.9484 61.8965 98.066 61.5969 98.1373C61.2973 98.2121 60.9906 98.2477 60.6732 98.2477V98.262Z" fill="#4A494A"/>
<path d="M64.2646 98.1874V91.7275H65.57V94.3998H68.3661V91.7275H69.6821V98.1874H68.3661V95.6042H65.57V98.1874H64.2646Z" fill="#4A494A"/>
<path d="M71.0516 98.1874V91.7275H75.7094V92.9425H72.3569V94.4034H75.2351V95.5721H72.3569V96.9866H75.7094V98.1909H71.0516V98.1874Z" fill="#4A494A"/>
<path d="M76.7223 98.1874V91.7275H79.3258C79.6468 91.7275 79.9571 91.7596 80.2531 91.8237C80.5491 91.8879 80.8166 91.9948 81.052 92.148C81.291 92.3012 81.4764 92.5114 81.6155 92.7822C81.751 93.053 81.8224 93.3986 81.8224 93.8191C81.8224 94.129 81.7689 94.4105 81.6654 94.6599C81.562 94.9094 81.4087 95.1231 81.2089 95.2977C81.0092 95.4723 80.7667 95.6113 80.4885 95.7075L81.9222 98.1909H80.4528L79.1939 95.9177H78.0348V98.1909H76.7294L76.7223 98.1874ZM78.0312 94.7561H79.2367C79.4257 94.7561 79.5969 94.7383 79.7538 94.7063C79.9107 94.6742 80.0427 94.6208 80.1568 94.5459C80.271 94.4711 80.3565 94.3749 80.4207 94.2538C80.4849 94.1326 80.517 93.983 80.517 93.8084C80.5242 93.5839 80.4742 93.4093 80.3744 93.2846C80.2745 93.1599 80.1354 93.0708 79.9535 93.0209C79.7752 92.9675 79.5612 92.9425 79.3187 92.9425H78.0312V94.7597V94.7561Z" fill="#4A494A"/>
</g>
<defs>
<clipPath id="clip0_408_1288">
<rect width="90" height="100.994" fill="white"/>
</clipPath>
</defs>
</svg>
