<svg width="127" height="70" viewBox="0 0 127 70" fill="none" xmlns="http://www.w3.org/2000/svg">
    <g clip-path="url(#clip0_677_256)">
    <path d="M79.8524 9.59169C77.9407 8.89415 75.9702 8.62876 73.9457 8.74384C73.1307 8.78612 72.3111 8.82369 71.5055 8.92938C70.3664 9.07969 69.225 9.2394 68.1071 9.486C65.378 10.0896 62.7546 10.975 60.3215 12.3912C58.9076 13.2109 57.5313 14.0681 56.2255 15.0522C54.8821 16.0644 53.628 17.1659 52.4983 18.4107C51.4978 19.5122 50.5865 20.6747 49.8068 21.9406C49.027 23.2112 48.3624 24.5358 47.9373 25.9708C47.8903 26.1352 47.8574 26.2245 48.0853 26.2902C50.2953 26.9056 52.5452 27.1968 55.0935 27.2532C55.4646 27.2226 56.0916 27.1944 56.7164 27.1169C57.7169 26.9972 58.7197 26.8727 59.7108 26.6942C61.632 26.3489 63.4733 25.7266 65.2465 24.9139C67.069 24.0755 68.7835 23.0445 70.4134 21.8749C71.8531 20.8415 73.2247 19.7259 74.4906 18.4929C75.2045 17.7977 75.9068 17.0931 76.5714 16.351C77.1633 15.691 77.7293 15.0029 78.246 14.2795C79.1596 12.9972 79.681 11.5316 80.0685 10.0144C80.1296 9.78427 80.0826 9.68093 79.8524 9.59638V9.59169ZM76.7476 12.0342C76.2215 12.7576 75.679 13.4669 75.1364 14.1785C74.9016 14.4862 74.6597 14.7915 74.3943 15.0733C73.732 15.7732 73.0837 16.4919 72.3792 17.1448C71.2331 18.2017 70.0141 19.1716 68.706 20.0312C66.6275 21.3934 64.408 22.4785 62.0759 23.3216C60.5 23.89 58.8865 24.3409 57.2213 24.5781C56.3194 24.7049 55.4105 24.7895 54.5016 24.8811C54.0249 24.9257 53.5434 24.9398 53.0666 24.9656L52.9891 24.8646C53.0854 24.7402 53.1606 24.5828 53.2874 24.4982C54.5815 23.6434 55.8497 22.7391 57.1908 21.9712C59.8729 20.4422 62.5996 18.9884 65.3075 17.5041C65.5729 17.3585 65.8313 17.2058 66.0802 17.032C61.4253 19.0824 56.7939 21.1938 52.0121 22.974C54.9361 19.0119 58.553 15.8883 63.0247 13.8004C67.4847 11.7172 72.1537 10.6932 77.128 11.1699C77.128 11.5246 76.9308 11.7829 76.7499 12.0319L76.7476 12.0342Z" fill="url(#paint0_linear_677_256)"/>
    <path d="M50.1356 18.1969C50.6663 16.4073 51.2887 14.6294 52.1788 12.9643C52.7989 11.8017 53.4541 10.6532 54.1822 9.5588C54.7787 8.66398 55.4739 7.82788 56.1832 7.01762C56.7962 6.31773 57.4608 5.66013 58.1513 5.03775C59.2176 4.07717 60.3755 3.24107 61.6367 2.54353C63.5179 1.50545 65.5001 0.737461 67.5904 0.244256C68.0248 0.140917 68.4734 0.089248 68.9995 0.00234985C69.0841 0.678746 69.2062 1.31522 69.2344 1.95873C69.3236 3.8611 68.9197 5.68596 68.2949 7.46855C68.2621 7.56249 68.1728 7.67757 68.0859 7.70106C67.3273 7.91243 66.564 8.10502 65.7491 8.31874C66.6157 6.39524 66.975 4.39423 67.184 2.26875C66.7214 2.44254 66.3245 2.58111 65.9369 2.74317C64.3328 3.41017 62.8063 4.22278 61.3971 5.24207C60.298 6.0359 59.2364 6.87435 58.2617 7.82319C57.1908 8.86596 56.2278 9.99564 55.4011 11.238C54.6096 12.4264 53.9332 13.6735 53.4541 15.024C53.4283 15.0968 53.3978 15.1766 53.3437 15.226C52.2728 16.2218 51.1995 17.2152 50.1356 18.1993V18.1969Z" fill="url(#paint1_linear_677_256)"/>
    <path d="M31.3749 49.4404H24.0567C26.1751 50.6828 27.1803 53.9732 27.1803 59.1518C27.1803 67.1418 26.464 69.0817 22.1402 69.2602C22.0064 69.2649 21.8655 69.2696 21.7245 69.2719H21.6846C21.5883 69.2743 21.492 69.2743 21.3934 69.2743C17.8541 69.2743 17.7531 68.3255 17.7531 65.9816V49.438H6.2825V65.9322C6.2825 67.7759 4.88743 69.2743 3.09076 69.2743H0V69.9742H26.3325C35.4098 69.9742 40.6472 65.486 40.6472 59.4501C40.6472 54.5086 36.469 51.0468 31.3749 49.4404ZM23.392 30.0221H1.24711V30.6704H3.9386C5.48633 30.6704 6.2825 31.2716 6.2825 32.716V47.3149H17.7531V30.668H21.9923C24.2892 30.668 25.8322 32.6643 25.8322 38.9985C25.8322 43.4632 25.6138 46.1241 24.3385 47.3149H30.9992C34.865 45.7672 37.6527 42.9324 37.6527 39.1981C37.6527 33.2139 31.0696 30.0198 23.3874 30.0198L23.392 30.0221Z" fill="black"/>
    <path d="M84.6647 30.7479H83.7675C81.4236 30.7479 78.2319 32.5422 78.2319 38.0285V69.9483H68.8046L50.6006 35.8843C50.6006 35.8843 50.6006 60.0232 50.5513 60.4717C50.5513 66.0591 52.7965 69.3001 56.4862 69.3001H57.8836V69.9483H43.9188V69.3001H45.5159C47.4605 69.3001 49.9054 66.0074 49.9054 60.1735V35.5343C49.9054 32.3426 47.3126 30.6962 45.5159 30.6962H44.668V30.048H62.7217L77.5343 58.2265V37.9769C77.5343 33.538 74.9415 30.7455 72.3979 30.7455H70.202V30.048H84.667V30.7455L84.6647 30.7479Z" fill="black"/>
    <path d="M117.613 49.4639H110.295C112.413 50.7063 113.419 53.9967 113.419 59.1753C113.419 67.1653 112.702 69.1052 108.378 69.2837C108.245 69.2884 108.104 69.2931 107.963 69.2954H107.923C107.827 69.2978 107.73 69.2978 107.632 69.2978C104.092 69.2978 103.991 68.349 103.991 66.0051V49.4615H92.5207V65.9557C92.5207 67.7994 91.1257 69.2978 89.329 69.2978H86.2382V69.9977H112.571C121.648 69.9977 126.885 65.5095 126.885 59.4736C126.885 54.5321 122.707 51.0703 117.613 49.4639ZM109.63 30.048H87.4853V30.6962H90.1768C91.7245 30.6962 92.5207 31.2974 92.5207 32.7418V47.3407H103.991V30.6939H108.23C110.527 30.6939 112.07 32.6902 112.07 39.0243C112.07 43.489 111.852 46.15 110.577 47.3407H117.237C121.103 45.793 123.891 42.9582 123.891 39.224C123.891 33.2397 117.308 30.0456 109.626 30.0456L109.63 30.048Z" fill="black"/>
    </g>
    <defs>
    <linearGradient id="paint0_linear_677_256" x1="47.9021" y1="17.9832" x2="80.0943" y2="17.9832" gradientUnits="userSpaceOnUse">
    <stop stop-color="#DFAE32"/>
    <stop offset="0.17" stop-color="#F0D296"/>
    <stop offset="0.49" stop-color="#E0B037"/>
    <stop offset="0.73" stop-color="#F2D59F"/>
    <stop offset="1" stop-color="#E0B035"/>
    </linearGradient>
    <linearGradient id="paint1_linear_677_256" x1="50.1356" y1="9.09847" x2="69.2485" y2="9.09847" gradientUnits="userSpaceOnUse">
    <stop stop-color="#DFAE32"/>
    <stop offset="0.17" stop-color="#F0D296"/>
    <stop offset="0.49" stop-color="#E0B037"/>
    <stop offset="0.73" stop-color="#F2D59F"/>
    <stop offset="1" stop-color="#E0B035"/>
    </linearGradient>
    <clipPath id="clip0_677_256">
    <rect width="126.885" height="70" fill="white"/>
    </clipPath>
    </defs>
    </svg>