<svg width="196" height="99" viewBox="0 0 196 99" fill="none" xmlns="http://www.w3.org/2000/svg">
<path d="M72.3804 85.0844C72.3804 92.9444 75.5457 97.5057 80.7536 97.5057H81.4659C76.2601 97.5057 73.0927 92.9444 73.0927 85.0844C73.1543 84.5281 73.1625 58.0927 73.1625 51.8194L72.4502 50.4893C72.4502 50.4893 72.4502 84.4522 72.3804 85.0844Z" fill="#FEFFEA"/>
<path d="M109.917 79.5724V80.9251L89.5454 42.2778H90.2577L109.917 79.5724Z" fill="#FEFFEA"/>
<path d="M119.793 43.2612H119.238C115.931 43.2612 111.428 45.7882 111.428 53.5065V98.4168H112.14V53.5065C112.14 45.9093 116.5 43.3454 119.791 43.2653V43.2612H119.793Z" fill="#FEFFEA"/>
<path d="M27.3897 43.1548H26.3223V66.5747H27.3897V43.1548Z" fill="#FEFFEA"/>
<path d="M31.9962 97.4627C31.8217 97.4668 31.6431 97.4689 31.4584 97.4689C31.3024 97.4689 31.1525 97.4689 31.0027 97.4648H30.9452C26.4537 97.3724 26.3203 96.0155 26.3203 92.8358V69.5596H27.3877V92.8358C27.3877 95.9129 27.515 97.28 31.5877 97.4484C31.7191 97.4545 31.8546 97.4586 31.9941 97.4627H31.9962Z" fill="#FEFFEA"/>
<path d="M34.2749 42.2432H35.3423C46.1768 42.2432 55.4655 46.7346 55.4655 55.155C55.4655 60.4101 51.5324 64.4006 46.0783 66.5766H45.0108C50.465 64.4006 54.3981 60.4101 54.3981 55.155C54.3981 46.7346 45.1114 42.2432 34.2749 42.2432Z" fill="#FEFFEA"/>
<path d="M59.6857 83.645C59.6857 92.1373 52.2958 98.4536 39.4927 98.4536H38.4253C51.2284 98.4536 58.6183 92.1373 58.6183 83.645C58.6183 76.6944 52.7228 71.8232 45.534 69.561H46.6055C53.7964 71.8232 59.6878 76.6944 59.6878 83.645H59.6857Z" fill="#FEFFEA"/>
<path d="M149.044 43.1895H147.977V66.6094H149.044V43.1895Z" fill="#FEFFEA"/>
<path d="M153.651 97.4974C153.476 97.5015 153.298 97.5036 153.113 97.5036C152.957 97.5036 152.807 97.5036 152.657 97.4994H152.6C148.109 97.4071 147.975 96.0502 147.975 92.8705V69.5942H149.043V92.8705C149.043 95.9476 149.17 97.3147 153.242 97.483C153.374 97.4892 153.509 97.4933 153.649 97.4974H153.651Z" fill="#FEFFEA"/>
<path d="M155.93 42.2778H156.997C167.832 42.2778 177.12 46.7693 177.12 55.1897C177.12 60.4448 173.187 64.4353 167.733 66.6112H166.666C172.12 64.4353 176.053 60.4448 176.053 55.1897C176.053 46.7693 166.766 42.2778 155.93 42.2778Z" fill="#FEFFEA"/>
<path d="M181.34 83.6797C181.34 92.172 173.951 98.4883 161.148 98.4883H160.08C172.883 98.4883 180.273 92.172 180.273 83.6797C180.273 76.729 174.378 71.8578 167.189 69.5957H168.26C175.451 71.8578 181.343 76.729 181.343 83.6797H181.34Z" fill="#FEFFEA"/>
<path d="M112.645 13.495C109.948 12.5137 107.171 12.1422 104.313 12.3003C103.162 12.3598 102.008 12.4132 100.871 12.563C99.2654 12.7765 97.654 12.9982 96.0775 13.3472C92.2286 14.197 88.5274 15.441 85.0952 17.4342C83.102 18.5858 81.1581 19.7949 79.3167 21.1764C77.422 22.601 75.6526 24.1488 74.0576 25.8998C72.6473 27.4476 71.3602 29.0857 70.26 30.8654C69.1576 32.6513 68.2236 34.5152 67.6242 36.5351C67.5565 36.765 67.5113 36.8923 67.8336 36.9847C70.9497 37.8489 74.1273 38.2615 77.7197 38.3375C78.2411 38.2943 79.1258 38.2553 80.0085 38.1465C81.4187 37.9762 82.8331 37.8037 84.2331 37.5512C86.9448 37.0647 89.5415 36.1903 92.0438 35.0448C94.6159 33.8645 97.032 32.4152 99.3311 30.7669C101.363 29.3135 103.297 27.7432 105.083 26.0065C106.089 25.0294 107.08 24.0359 108.018 22.9951C108.854 22.0673 109.652 21.0984 110.381 20.0823C111.67 18.2779 112.407 16.2149 112.953 14.082C113.039 13.7598 112.974 13.614 112.647 13.4929L112.645 13.495ZM108.265 16.9333C107.522 17.9494 106.758 18.9491 105.99 19.9488C105.66 20.382 105.319 20.811 104.941 21.2072C104.007 22.1925 103.094 23.2025 102.098 24.12C100.481 25.6083 98.7625 26.9734 96.9171 28.1804C93.9857 30.0977 90.8553 31.6249 87.5647 32.8094C85.3395 33.6099 83.0671 34.2442 80.7167 34.5768C79.444 34.7533 78.161 34.8744 76.8801 35.0017C76.2088 35.0654 75.5294 35.0838 74.854 35.1228L74.7432 34.9812C74.8787 34.8067 74.9854 34.585 75.1619 34.468C76.9889 33.2671 78.7748 31.9944 80.6695 30.9126C84.4527 28.7613 88.2975 26.7168 92.1177 24.6291C92.4913 24.4239 92.8567 24.2104 93.2077 23.9661C86.641 26.8502 80.107 29.8206 73.3617 32.327C77.4877 26.7517 82.5888 22.3588 88.8969 19.4192C95.1907 16.4879 101.774 15.0468 108.792 15.7202C108.792 16.219 108.515 16.5823 108.259 16.9313L108.265 16.9333Z" fill="#FEFFEA"/>
<path d="M70.7236 25.6061C71.4708 23.0874 72.3515 20.5871 73.6057 18.2429C74.4802 16.6089 75.4039 14.9913 76.4324 13.4497C77.2719 12.1893 78.2552 11.0151 79.257 9.87377C80.1191 8.8905 81.0593 7.96265 82.0343 7.08818C83.539 5.73746 85.173 4.55918 86.9527 3.57796C89.607 2.11639 92.4028 1.03664 95.3506 0.342811C95.9644 0.197065 96.5966 0.127271 97.3397 0C97.4588 0.950427 97.6312 1.84954 97.6722 2.75275C97.7975 5.42955 97.2289 7.99755 96.3462 10.506C96.301 10.6374 96.1737 10.7996 96.0526 10.8324C94.9831 11.1301 93.9054 11.401 92.7579 11.7007C93.9814 8.99519 94.4864 6.1788 94.782 3.18793C94.1312 3.43427 93.5688 3.62928 93.0228 3.85508C90.7606 4.79319 88.6073 5.93658 86.6181 7.3694C85.0683 8.48611 83.5698 9.66644 82.1945 11.0007C80.6836 12.4664 79.3247 14.0573 78.1587 15.8042C77.0441 17.4751 76.0895 19.2323 75.4142 21.1311C75.3772 21.2317 75.3341 21.3466 75.2582 21.4164C73.7494 22.8185 72.2324 24.2143 70.7318 25.602L70.7236 25.6061Z" fill="#FEFFEA"/>
<path d="M44.2595 69.5618H33.9362C36.9271 71.3087 38.3435 75.9376 38.3435 83.227C38.3435 94.4679 37.3335 97.1981 31.2348 97.4485C31.0459 97.4547 30.8468 97.4629 30.6477 97.467H30.5902C30.4547 97.4711 30.3193 97.4711 30.1817 97.4711C25.1874 97.4711 25.0457 96.1368 25.0457 92.838V69.5618H8.86382V92.7703C8.86382 95.365 6.89522 97.4711 4.36006 97.4711H0V98.4544H37.1488C49.9518 98.4544 57.3418 92.138 57.3418 83.6458C57.3418 76.6951 51.4463 71.8239 44.2595 69.5618ZM32.9961 42.2437H1.75716V43.1551H5.55477C7.73685 43.1551 8.86176 44.0008 8.86176 46.0351V66.5771H25.0437V43.1571H31.0234C34.2626 43.1571 36.4406 45.9653 36.4406 54.8763C36.4406 61.1557 36.1306 64.902 34.3324 66.5771H43.7299C49.1841 64.4011 53.1172 60.4106 53.1172 55.1555C53.1172 46.7351 43.8305 42.2437 32.994 42.2437H32.9961Z" fill="#FEFFEA"/>
<path d="M119.436 43.2616H118.169C114.862 43.2616 110.359 45.7885 110.359 53.5069V98.4172H97.0609L71.3809 50.4894C71.3809 50.4894 71.3809 84.4523 71.3111 85.0845C71.3111 92.9445 74.4764 97.5058 79.6843 97.5058H81.6549V98.4172H61.9546V97.5058H64.2065C66.951 97.5058 70.3976 92.8747 70.3976 84.6637V49.9987C70.3976 45.5073 66.7396 43.1918 64.2065 43.1918H63.0097V42.2804H88.4783L109.375 81.9274V53.4371C109.375 47.1926 105.717 43.2616 102.129 43.2616H99.0336V42.2783H119.438V43.2616H119.436Z" fill="#FEFFEA"/>
<path d="M165.914 69.5964H155.591C158.582 71.3433 159.998 75.9723 159.998 83.2617C159.998 94.5026 158.988 97.2327 152.89 97.4832C152.701 97.4893 152.502 97.4975 152.302 97.5017H152.245C152.11 97.5058 151.974 97.5057 151.837 97.5057C146.842 97.5057 146.701 96.1715 146.701 92.8727V69.5964H130.519V92.8049C130.519 95.3996 128.55 97.5057 126.015 97.5057H121.655V98.489H158.804C171.607 98.489 178.997 92.1727 178.997 83.6804C178.997 76.7298 173.101 71.8586 165.914 69.5964ZM154.651 42.2783H123.412V43.1897H127.21C129.392 43.1897 130.517 44.0355 130.517 46.0698V66.6117H146.698V43.1918H152.678C155.917 43.1918 158.095 46 158.095 54.911C158.095 61.1904 157.785 64.9367 155.987 66.6117H165.385C170.839 64.4358 174.772 60.4452 174.772 55.1902C174.772 46.7698 165.485 42.2783 154.649 42.2783H154.651Z" fill="#FEFFEA"/>
<path d="M189.429 35.3335C185.785 35.3314 182.864 38.2382 182.852 41.8243C182.839 45.468 185.781 48.2638 189.24 48.3665C192.996 48.4773 195.954 45.3818 196 41.9803C196.045 38.3264 193.085 35.3294 189.429 35.3356V35.3335ZM189.459 47.4345C186.36 47.494 183.765 44.9527 183.771 41.8572C183.777 38.7021 186.302 36.2388 189.476 36.2388C192.666 36.2408 195.158 38.7329 195.166 41.8407C195.174 45.1334 192.364 47.5351 189.457 47.4366L189.459 47.4345Z" fill="#FEFFEA"/>
<path d="M192.506 44.0492C192.393 43.8562 192.295 43.653 192.186 43.4559C191.804 42.7765 191.535 42.0272 190.856 41.4894C191.065 41.3765 191.235 41.2964 191.393 41.1979C192.024 40.7996 192.253 40.2043 192.182 39.49C192.118 38.8536 191.753 38.4 191.17 38.1865C190.722 38.0202 190.234 37.895 189.757 37.8765C188.651 37.8314 187.54 37.8621 186.43 37.8642C186.346 37.8642 186.266 37.8888 186.126 37.9114C186.216 37.9915 186.243 38.0366 186.282 38.051C187.025 38.3548 187.085 38.441 187.085 39.2211C187.085 40.697 187.064 42.1729 187.093 43.6489C187.107 44.3448 187 44.9011 186.206 45.0694C186.2 45.0694 186.2 45.0899 186.198 45.1022C186.502 45.2623 189.297 45.2336 189.501 45.0242C188.647 44.9401 188.565 44.3673 188.606 43.7064C188.614 43.5401 188.606 43.3738 188.606 43.2055V41.7439C189.185 41.7049 189.651 41.8034 189.942 42.3002C190.071 42.5137 190.199 42.7292 190.316 42.9468C190.663 43.5955 190.993 44.2524 191.356 44.8908C191.436 45.0283 191.634 45.1741 191.785 45.1823C192.307 45.2172 192.836 45.1967 193.358 45.1905C193.426 45.1905 193.491 45.1494 193.557 45.1289C193.569 45.1002 193.582 45.0694 193.596 45.0406C192.99 44.9483 192.754 44.4905 192.504 44.0492H192.506ZM190.295 40.7524C189.922 41.3724 189.265 41.321 188.626 41.3293V38.3035C189.277 38.2706 189.936 38.2234 190.318 38.8639C190.687 39.4777 190.654 40.153 190.293 40.7545L190.295 40.7524Z" fill="#FEFFEA"/>
</svg>
